<svg width="28" height="37" viewBox="0 0 28 37" fill="none" xmlns="http://www.w3.org/2000/svg">
<path d="M20.6943 24.0181C20.4876 23.9075 20.1555 23.73 20.0766 23.6974C18.2375 22.8014 16.1756 22.2983 13.9996 22.2983C6.27573 22.2983 -0.00680458 28.6294 5.53128e-06 36.4087C0.000406126 36.7379 0.274013 37.0009 0.600898 37.0009H27.3991C27.726 37.0009 27.9996 36.7379 28 36.4087C28.004 31.07 25.0464 26.4147 20.6943 24.0181ZM7.81441 30.143H19.4317V35.7907H7.81441V30.143ZM19.4317 24.7938V28.9328H7.81441V25.1004C7.81441 25.0831 7.81081 25.0669 7.8092 25.05C9.61429 24.0681 11.6778 23.5086 13.8694 23.5086C15.8624 23.5086 17.7488 23.9725 19.4317 24.7938ZM6.61263 25.7898V35.7907H1.08562C1.2771 31.6465 3.42349 28.0098 6.61263 25.7898ZM20.6335 35.7907V25.4635C24.0938 27.6423 26.4529 31.4363 26.6536 35.7907H20.6335Z" fill="#28334A"/>
<path d="M5.5392 13.1998H5.72988C6.02912 17.4053 9.5123 20.737 13.7622 20.737C18.0137 20.737 21.4985 17.4053 21.7981 13.1998H21.9888C22.8109 13.1998 23.4546 12.3764 23.4546 11.3251C23.4546 10.5296 23.0853 9.86643 22.5497 9.5901C22.3077 5.84649 19.7655 2.66765 16.1654 1.64461C15.7792 0.682489 14.8434 0.000732422 13.7514 0.000732422C12.6562 0.000732422 11.7184 0.686523 11.3342 1.65308C7.74968 2.6854 5.22032 5.85698 4.97916 9.5901C4.44357 9.86643 4.07422 10.53 4.07422 11.3251C4.07342 12.3764 4.71758 13.1998 5.5392 13.1998ZM13.7622 19.5268C10.1753 19.5268 7.2277 16.7376 6.93166 13.1998H20.596C20.3003 16.7376 17.3511 19.5268 13.7622 19.5268ZM21.9912 11.9896H5.53679C5.4755 11.9803 5.2724 11.754 5.2724 11.3247C5.2724 11.0524 5.35372 10.8713 5.42943 10.7664C5.46909 10.7749 5.50995 10.7793 5.55242 10.7793H21.9756C22.0177 10.7793 22.0589 10.7749 22.0982 10.7664C22.1739 10.8717 22.2552 11.0524 22.2552 11.3247C22.2552 11.754 22.0521 11.9799 21.9912 11.9896ZM21.2189 9.56912H16.2251V2.97303C19.028 3.98961 20.9861 6.56052 21.2189 9.56912ZM15.0233 2.65474V9.56912H12.2191V2.62247C12.2191 1.69544 13.1116 0.974151 14.0759 1.28316C14.6547 1.46873 15.0233 2.04318 15.0233 2.65474ZM11.0173 2.98311V9.56912H6.04995C6.2819 6.5702 8.22879 4.00655 11.0173 2.98311Z" fill="#28334A"/>
</svg>
