<svg width="32" height="35" viewBox="0 0 32 35" fill="none" xmlns="http://www.w3.org/2000/svg">
<path d="M24.9701 5.14136C24.0685 4.54652 22.9735 4.31696 21.8879 4.49667C20.8023 4.67596 19.8566 5.24148 19.2244 6.08976C17.9192 7.84077 18.3714 10.2641 20.233 11.4919C20.952 11.9649 21.7774 12.1919 22.5953 12.1919C23.8961 12.1919 25.1772 11.6168 25.9782 10.5431C26.6103 9.69568 26.8535 8.66643 26.6633 7.64557C26.4727 6.62554 25.8717 5.73578 24.9701 5.14136ZM24.8832 9.82177C24.0016 11.0039 22.259 11.2913 20.9992 10.4627C19.7416 9.63326 19.436 7.99493 20.319 6.81111C20.7462 6.23763 21.3859 5.85517 22.1191 5.73411C22.2821 5.7073 22.4452 5.69389 22.6078 5.69389C23.1753 5.69389 23.7286 5.85685 24.203 6.16977C24.812 6.57108 25.2178 7.17262 25.3465 7.86298C25.4753 8.55333 25.3109 9.24913 24.8832 9.82177Z" fill="#28334A"/>
<path d="M27.6505 1.54585C25.6704 0.240551 23.2671 -0.262552 20.8879 0.131636C18.5068 0.524986 16.4314 1.76662 15.0438 3.6278C12.7728 6.67281 12.8743 10.7236 15.238 13.6538L9.76898 20.9876L6.21681 18.6455C6.07159 18.5496 5.89117 18.5119 5.71744 18.5412C5.54237 18.5701 5.38735 18.6631 5.28578 18.7996L3.73956 20.8766C3.52797 21.1606 3.60102 21.5523 3.90305 21.7512L7.45343 24.0933L6.65248 25.167L3.10165 22.8249C2.80052 22.6263 2.38356 22.6942 2.17107 22.9786L0.621285 25.0555C0.519273 25.1921 0.479626 25.3609 0.509918 25.5251C0.540656 25.6893 0.63955 25.8355 0.784327 25.9311L4.33649 28.2715L2.48334 30.7598C2.01026 31.3931 1.8196 32.1895 1.95992 32.9448C2.08599 33.6204 2.46552 34.1969 3.02815 34.568C3.46204 34.8537 3.9721 35.0007 4.50933 35.0007C4.73207 35.0007 4.95925 34.9756 5.18733 34.9241C5.91835 34.7603 6.58521 34.3334 7.01732 33.7537L19.7751 16.6465C23.5068 17.7377 27.5904 16.4462 29.8627 13.4004C32.7275 9.55822 31.735 4.24024 27.6505 1.54585ZM28.7691 12.6778C26.7435 15.3935 23.0283 16.4747 19.7323 15.3031C19.5653 15.2436 19.38 15.2499 19.2174 15.3202C19.0561 15.3898 18.9309 15.5167 18.8699 15.6729L5.92414 33.0315C5.67646 33.3637 5.29558 33.6075 4.87863 33.7013C4.47726 33.7909 4.09193 33.7335 3.79525 33.5379C3.52529 33.3599 3.34087 33.0721 3.27672 32.7273C3.19654 32.298 3.30612 31.8443 3.57786 31.4807L5.81455 28.4771C6.0266 28.1931 5.95309 27.8015 5.65107 27.6021L2.09935 25.2616L2.88115 24.214L6.43197 26.5561C6.57675 26.6516 6.75627 26.6889 6.9309 26.6608C7.10597 26.6319 7.26099 26.5389 7.363 26.4027L8.93105 24.3003C9.14354 24.0162 9.07004 23.6242 8.76801 23.4252L5.21718 21.0831L5.9972 20.0358L9.54891 22.3775C9.85183 22.5773 10.2675 22.5082 10.4799 22.2238L16.5285 14.113L16.5356 14.1067C16.8034 13.8779 16.8288 13.4909 16.5935 13.2328C14.3012 10.7169 14.1145 7.06407 16.1387 4.34915C17.321 2.76277 19.0904 1.70462 21.1195 1.3695C23.1486 1.03479 25.1955 1.46249 26.8834 2.5751C30.3648 4.87153 31.2103 9.40364 28.7691 12.6778Z" fill="#28334A"/>
</svg>
