<svg width="30" height="41" viewBox="0 0 30 41" fill="none" xmlns="http://www.w3.org/2000/svg">
<path d="M27.337 3.53448H20.7212V0.639362C20.7212 0.298759 20.43 0.000732422 20.0971 0.000732422H10.2358C9.90291 0.000732422 9.61165 0.298759 9.61165 0.639362V3.53448H2.62136C1.16505 3.53448 0 4.72659 0 6.21672V38.3185C0 39.8086 1.16505 41.0007 2.62136 41.0007H27.3786C28.8349 41.0007 30 39.8086 30 38.3185V6.21672C29.9584 4.72659 28.7933 3.53448 27.337 3.53448ZM10.2358 11.7941H20.0971C20.43 11.7941 20.7212 11.4961 20.7212 11.1555V8.38806H25.0902V35.9343H4.86824V8.43064H9.61165V11.1555C9.61165 11.5386 9.90291 11.7941 10.2358 11.7941ZM19.473 1.27799V7.74943V10.5168H10.8599V7.74943V4.13054V1.27799H19.473ZM28.7101 38.2759C28.7101 39.0423 28.086 39.6809 27.337 39.6809H2.62136C1.8724 39.6809 1.24827 39.0423 1.24827 38.2759V6.21672C1.24827 5.45037 1.8724 4.81174 2.62136 4.81174H9.61165V7.15338H4.24411C3.91123 7.15338 3.61997 7.45141 3.61997 7.79201V36.6155C3.61997 36.9561 3.91123 37.2541 4.24411 37.2541H25.7143C26.0472 37.2541 26.3384 36.9561 26.3384 36.6155V7.79201C26.3384 7.45141 26.0472 7.15338 25.7143 7.15338H20.7212V4.81174H27.337C28.086 4.81174 28.7101 5.45037 28.7101 6.21672V38.2759Z" fill="#28334A"/>
<path d="M6.4082 18.9895C6.4082 19.3301 6.69947 19.6281 7.03234 19.6281H23.0518C23.3846 19.6281 23.6759 19.3301 23.6759 18.9895C23.6759 18.6489 23.3846 18.3508 23.0518 18.3508H7.03234C6.69947 18.3508 6.4082 18.6489 6.4082 18.9895Z" fill="#28334A"/>
<path d="M23.0518 22.821H7.03234C6.69947 22.821 6.4082 23.1191 6.4082 23.4597C6.4082 23.8003 6.69947 24.0983 7.03234 24.0983H23.0518C23.3846 24.0983 23.6759 23.8003 23.6759 23.4597C23.6759 23.1191 23.3846 22.821 23.0518 22.821Z" fill="#28334A"/>
<path d="M23.0518 27.5042H7.03234C6.69947 27.5042 6.4082 27.8022 6.4082 28.1428C6.4082 28.4834 6.69947 28.7814 7.03234 28.7814H23.0518C23.3846 28.7814 23.6759 28.4834 23.6759 28.1428C23.6759 27.8022 23.3846 27.5042 23.0518 27.5042Z" fill="#28334A"/>
</svg>
