<svg width="31" height="40" viewBox="0 0 31 40" fill="none" xmlns="http://www.w3.org/2000/svg">
<path d="M30.3651 6.15145C30.3181 6.13523 30.269 6.12216 30.2175 6.11721C24.9165 5.58285 20.66 4.40016 15.828 0.1614C15.557 -0.0755886 15.147 -0.0472042 14.9114 0.225378C14.898 0.240697 14.8939 0.260521 14.8823 0.276741C10.0892 4.44972 5.85277 5.6234 0.585724 6.1537C0.573204 6.15505 0.562027 6.15911 0.549954 6.16091C0.529387 6.16406 0.509267 6.16812 0.489593 6.17307C0.467685 6.17893 0.44667 6.18524 0.425656 6.1929C0.40643 6.20011 0.388098 6.20777 0.369766 6.21678C0.350093 6.22624 0.330867 6.2366 0.312535 6.24832C0.295097 6.25913 0.278554 6.27039 0.262458 6.28256C0.245467 6.29517 0.229818 6.30869 0.214169 6.32266C0.19852 6.33707 0.183765 6.35194 0.169457 6.36816C0.156491 6.38303 0.143972 6.3979 0.1319 6.41367C0.118486 6.43169 0.105967 6.45061 0.0943416 6.46999C0.084505 6.48621 0.07601 6.50242 0.0675148 6.51955C0.0572311 6.54072 0.0482885 6.5619 0.0406875 6.58397C0.0344279 6.602 0.0286155 6.62002 0.0241443 6.63849C0.0183318 6.66147 0.0134132 6.68445 0.0098363 6.70833C0.00715359 6.7277 0.00491821 6.74707 0.00402398 6.7669C0.00312974 6.77996 0 6.79213 0 6.80519V23.6359C0 23.694 0.00760084 23.7512 0.0228028 23.8071C2.92862 34.6045 14.6511 39.7358 15.1488 39.9485C15.2302 39.9832 15.3165 40.0007 15.4028 40.0007C15.4882 40.0007 15.574 39.9836 15.6545 39.9498C16.1575 39.7363 28.015 34.6059 30.9204 23.8071C30.9298 23.7729 30.9361 23.7382 30.9396 23.7026L30.9964 23.1421C30.9987 23.12 31 23.0975 31 23.0759V6.80474C31 6.44836 30.717 6.15956 30.3651 6.15145ZM29.6524 23.5161C27.1186 32.8181 17.1286 37.8259 15.4041 38.6284C13.6948 37.825 3.85058 32.8384 1.29932 23.548V7.39181C6.43894 6.81916 10.6785 5.55762 15.4229 1.52791C20.2111 5.5788 24.4877 6.81511 29.7007 7.37739V23.0421L29.6524 23.5161Z" fill="#28334A"/>
<path d="M11.2714 23.4877H12.4729L12.4658 27.7119L12.4658 27.7119C12.4656 27.9265 12.6306 28.112 12.8484 28.1125H12.8487C13.0658 28.1125 13.232 27.9279 13.2322 27.7134C13.2322 27.7134 13.2322 27.7134 13.2322 27.7133L13.2393 23.4877H18.1856C18.4034 23.4877 18.5688 23.3023 18.5688 23.0879C18.5688 22.8735 18.4034 22.688 18.1856 22.688H13.2409L13.2442 20.7889H17.9127C20.2343 20.7889 22.1118 18.7864 22.1118 16.3389C22.1118 13.8915 20.2343 11.889 17.9127 11.889H11.2716C11.0537 11.889 10.8884 12.0742 10.8884 12.2888C10.8884 12.5034 11.0537 12.6887 11.2716 12.6887H12.4911L12.4788 19.9892H11.276C11.058 19.9892 10.8927 20.1747 10.8927 20.3891C10.8927 20.6034 11.058 20.7889 11.276 20.7889H12.4776L12.4743 22.688H11.2714C11.0535 22.688 10.8882 22.8735 10.8882 23.0879C10.8882 23.3022 11.0535 23.4877 11.2714 23.4877ZM13.2454 19.9892L13.2576 12.6887H17.9127C19.7991 12.6887 21.3454 14.3201 21.3454 16.3391C21.3454 18.358 19.7992 19.9892 17.9127 19.9892H13.2454Z" fill="#28334A" stroke="#28334A" stroke-width="0.223559"/>
</svg>
