<svg width="34" height="43" viewBox="0 0 34 43" fill="none" xmlns="http://www.w3.org/2000/svg">
<path d="M33.9958 7.13503C33.9942 7.10862 33.9916 7.08273 33.988 7.05684C33.9838 7.03146 33.9791 7.00661 33.9728 6.98227C33.9665 6.95793 33.9592 6.93359 33.9503 6.91028C33.9414 6.88646 33.932 6.86316 33.9205 6.84037C33.9095 6.81811 33.898 6.79687 33.8849 6.77616C33.8718 6.75441 33.8577 6.7337 33.8426 6.7135C33.8274 6.69382 33.8117 6.67466 33.795 6.65653C33.7782 6.63841 33.761 6.6208 33.7426 6.60423C33.7238 6.58714 33.7045 6.57109 33.6835 6.55607C33.6637 6.54157 33.6438 6.52759 33.6223 6.51516C33.6004 6.5017 33.5779 6.48979 33.5549 6.47891C33.5318 6.46804 33.5088 6.4582 33.4848 6.44939C33.4607 6.44059 33.4366 6.43334 33.4115 6.42712C33.3859 6.42039 33.3598 6.41521 33.3331 6.41107C33.3195 6.409 33.3069 6.40434 33.2933 6.4033C27.0603 5.78602 22.1858 4.53125 17.1506 0.191616C16.8237 -0.0900982 16.3273 -0.0559198 16.0438 0.267223C16.0255 0.287937 16.0119 0.311241 15.9962 0.333508C10.9328 4.65865 6.70428 5.80984 0.706677 6.40279C0.305477 6.44266 0 6.77668 0 7.17594V25.3688C0 25.4376 0.00941512 25.506 0.0277228 25.5723C3.2096 37.1899 16.0422 42.7092 16.5868 42.9386C16.6851 42.98 16.7897 43.0007 16.8938 43.0007C16.9969 43.0007 17.101 42.9805 17.1977 42.9401C17.749 42.7113 30.7287 37.1925 33.9106 25.5728C33.9215 25.5319 33.9299 25.4905 33.9341 25.448L33.9958 24.8468C33.9984 24.8209 34 24.7945 34 24.768V7.17646C34 7.16144 33.9969 7.1485 33.9958 7.13503ZM32.3795 25.2253C29.6334 35.1159 18.8569 40.4684 16.8954 41.37C14.9511 40.4658 4.33108 35.1252 1.56871 25.2631V7.87453C7.25403 7.25155 11.6636 5.96157 16.661 1.80836C21.6135 5.87509 26.5953 7.23239 32.4302 7.87194V24.7277L32.3795 25.2253Z" fill="#28334A"/>
<path d="M22.2386 27.7674H12.2887C11.7611 27.7674 11.334 27.3439 11.334 26.8221V18.2584C11.334 17.736 11.6165 17.6289 12.1441 17.6289C12.6712 17.6289 12.6299 17.736 12.6299 18.2584V26.2845H21.8584V18.121C21.8584 17.5986 22.3028 17.6289 22.8299 17.6289C23.3569 17.6289 23.1934 17.5986 23.1934 18.121V26.8215C23.1934 27.3439 22.7656 27.7674 22.2386 27.7674Z" fill="#28334A"/>
<path d="M24.4147 20.8419C24.1951 20.8419 23.9755 20.7676 23.7948 20.6151L17.4863 14.2627L10.9978 20.5892C10.6 20.9314 9.99657 20.8898 9.65032 20.4966C9.30469 20.1028 9.34606 19.5054 9.74388 19.1626L16.6907 13.1786C17.0478 12.8724 17.5774 12.8692 17.9376 13.1736L25.0353 19.1783C25.4363 19.5174 25.4834 20.1141 25.141 20.5111C24.9526 20.7298 24.6846 20.8419 24.4147 20.8419Z" fill="#28334A"/>
</svg>
