<svg width="44" height="31" viewBox="0 0 44 31" fill="none" xmlns="http://www.w3.org/2000/svg">
<path d="M36.9199 18.456C36.8911 17.9148 36.8497 17.3494 36.7887 16.7593C36.4225 13.225 35.3059 8.26325 32.0623 4.69241C29.2337 1.57905 25.2802 0.000732422 20.3095 0.000732422C17.8748 0.000732422 15.6294 0.504805 13.6862 1.22382C13.6048 1.23952 13.5297 1.27042 13.46 1.31037C9.71905 2.74412 7.14641 4.95016 6.59249 5.80137C2.3888 9.27472 0 14.276 0 19.6952C0 19.7552 0.00780173 19.8151 0.0229176 19.8731C0.0633893 20.0253 1.05811 23.6308 5.35201 25.5239C11.3452 28.166 18.9656 31.0007 27.1009 31.0007C28.7159 31.0007 30.3503 30.8895 31.9965 30.6422C42.6357 29.0472 44 26.6481 44 24.736C44.0005 24.3113 44.0005 23.024 36.9199 18.456ZM30.9637 5.63446C36.0266 11.2026 35.5887 20.7058 35.4054 22.9489L26.8834 25.027C26.977 23.0411 27.1106 18.3761 26.5904 14.129C25.9599 8.98749 24.3239 3.20587 17.7256 1.62898C18.5497 1.50201 19.4113 1.42735 20.3095 1.42735C24.8408 1.42735 28.4257 2.84256 30.9637 5.63446ZM13.9637 2.63665C20.7927 2.65805 24.1391 6.15327 25.1378 14.2979C25.6229 18.2596 25.5166 22.7154 25.4289 24.7635L22.7777 23.2994C22.9972 21.0762 23.5916 11.9206 19.0919 7.59321C16.2477 4.85838 13.2435 4.03855 10.881 4.14982C11.7514 3.6234 12.7886 3.09079 13.9637 2.63665ZM7.7491 6.7225C7.80079 6.6854 7.85004 6.64736 7.8949 6.60979C8.03923 6.49661 8.18161 6.38248 8.32985 6.27311C10.0004 5.21503 14.1856 4.8793 18.0655 8.60896C21.9332 12.3286 21.5402 20.5869 21.3383 22.9551C19.4249 22.8752 13.7808 22.5043 9.18024 20.8327C6.11658 19.72 3.73412 17.8135 2.09477 15.1709C3.02708 11.8835 4.97167 8.94802 7.7491 6.7225ZM31.7746 29.2322C22.216 30.6674 12.9539 27.3091 5.95518 24.2238C2.60433 22.7473 1.62179 20.0937 1.46381 19.5958C1.46868 18.7541 1.54329 17.9253 1.67055 17.1102C3.84578 19.9525 6.61443 21.4229 8.6702 22.1695C14.0573 24.1268 20.5835 24.3703 21.8006 24.3988L25.739 26.5744C25.7439 26.5773 25.7497 26.5777 25.7546 26.5806C25.8034 26.6063 25.855 26.6277 25.9097 26.6419C25.9194 26.6443 25.9292 26.6448 25.9389 26.6467C25.9755 26.6548 26.0121 26.6624 26.0506 26.6652C26.0667 26.6667 26.0828 26.6671 26.0984 26.6671H26.0988C26.0988 26.6671 26.0988 26.6671 26.0993 26.6671C26.0998 26.6671 26.1003 26.6671 26.1003 26.6671C26.1564 26.6671 26.2105 26.659 26.2627 26.6472C26.2671 26.6462 26.2719 26.6467 26.2763 26.6457L36.2626 24.2105C36.5566 24.1392 36.7746 23.8981 36.8112 23.6047C36.8214 23.5233 36.9799 22.199 36.9711 20.2093C40.4638 22.5285 42.4099 24.2328 42.5372 24.7364C42.5377 26.6486 38.9162 28.1613 31.7746 29.2322Z" fill="#28334A"/>
</svg>
