<svg width="64" height="64" viewBox="0 0 64 64" fill="none" xmlns="http://www.w3.org/2000/svg">
<path d="M64 32C64 49.6731 49.6731 64 32 64C14.3269 64 0 49.6731 0 32C0 14.3269 14.3269 0 32 0C49.6731 0 64 14.3269 64 32Z" fill="white"/>
<path d="M39 28.5359C41.6667 30.0755 43 30.8453 43 32C43 33.1547 41.6667 33.9245 39 35.4641L31.5 39.7942C28.8333 41.3338 27.5 42.1036 26.5 41.5263C25.5 40.9489 25.5 39.4093 25.5 36.3301V27.6699C25.5 24.5907 25.5 23.0511 26.5 22.4737C27.5 21.8964 28.8333 22.6662 31.5 24.2058L39 28.5359Z" fill="#28334A"/>
</svg>
