<?xml version="1.0" encoding="utf-8"?>
<!-- Generator: Adobe Illustrator 20.1.0, SVG Export Plug-In . SVG Version: 6.00 Build 0)  -->
<svg version="1.1" id="Слой_1" xmlns="http://www.w3.org/2000/svg" xmlns:xlink="http://www.w3.org/1999/xlink" x="0px" y="0px"
	 viewBox="0 0 18 18" style="enable-background:new 0 0 18 18;" xml:space="preserve">
<style type="text/css">
	.st0{fill:#28334A;}
</style>
<path class="st0" d="M9,0c2.4,0,4.6,0.9,6.3,2.6C17.1,4.3,18,6.5,18,8.9c0,4.9-4,8.9-9,8.9h0c-1.5,0-3-0.4-4.3-1.1L0,18l1.3-4.6
	C0.5,12,0.1,10.5,0.1,8.9C0.1,4,4.1,0,9,0z M9,16.3L9,16.3c4.1,0,7.5-3.3,7.5-7.4c0-2-0.8-3.8-2.2-5.2C12.9,2.3,11,1.5,9,1.5
	c-4.1,0-7.5,3.3-7.5,7.4c0,1.4,0.4,2.8,1.1,3.9l0.2,0.3l-0.8,2.7L5,15.1l0.3,0.2C6.4,16,7.7,16.3,9,16.3z M11.6,10.1
	c0.2,0.1,1.3,0.6,1.5,0.7c0,0,0.1,0,0.1,0.1c0.2,0.1,0.3,0.1,0.3,0.2c0.1,0.1,0.1,0.5-0.1,1.1c-0.2,0.5-1.1,1-1.5,1.1
	c-0.4,0.1-0.9,0.1-1.4-0.1c-0.3-0.1-0.7-0.2-1.3-0.5c-2.1-0.9-3.5-2.9-3.8-3.3c0,0,0,0,0-0.1l0,0C5.3,9.1,4.5,8,4.5,6.9
	c0-1,0.5-1.6,0.7-1.8c0,0,0,0,0,0c0.2-0.2,0.4-0.3,0.6-0.3s0.3,0,0.4,0c0,0,0,0,0.1,0c0.1,0,0.3,0,0.5,0.4C6.9,5.3,7,5.6,7,5.8
	c0.2,0.5,0.4,1,0.4,1.1c0.1,0.1,0.1,0.2,0,0.4c0,0,0,0,0,0.1C7.4,7.4,7.4,7.5,7.3,7.6c0,0-0.1,0.1-0.1,0.1C7.1,7.8,7,7.9,6.9,8
	C6.8,8.1,6.7,8.2,6.8,8.5C7,8.7,7.4,9.4,8.1,10c0.7,0.6,1.3,0.9,1.7,1c0.1,0,0.1,0,0.1,0.1c0.2,0.1,0.4,0.1,0.5-0.1
	c0.1-0.1,0.6-0.7,0.7-0.9C11.2,9.9,11.4,10,11.6,10.1z"/>
</svg>
