<svg width="17" height="17" viewBox="0 0 17 17" fill="none" xmlns="http://www.w3.org/2000/svg">
<path fill-rule="evenodd" clip-rule="evenodd" d="M12.1068 0H4.89321C2.19524 0 0 2.18646 0 4.87424V12.1258C0 14.8133 2.19497 17 4.89321 17H12.1068C14.805 17 17 14.8133 17 12.1258V4.87424C17 2.18673 14.805 0 12.1068 0ZM15.3806 12.1258C15.3806 13.9239 13.9119 15.3869 12.1068 15.3869H4.89321C3.08808 15.3869 1.61939 13.9239 1.61939 12.1258V4.87424C1.61939 3.07611 3.08808 1.61311 4.89321 1.61311H12.1068C13.9119 1.61311 15.3806 3.07611 15.3806 4.87424V12.1258ZM8.5135 4.09541C6.06689 4.09541 4.07602 6.05722 4.07602 8.46887C4.07602 10.8802 6.06662 12.842 8.5135 12.842C10.9601 12.842 12.951 10.8802 12.951 8.46887C12.951 6.05722 10.9601 4.09541 8.5135 4.09541ZM8.5135 11.232C6.95779 11.232 5.69235 9.99223 5.69235 8.46887C5.69235 6.94521 6.95779 5.70574 8.5135 5.70574C10.0689 5.70574 11.3346 6.94521 11.3346 8.46887C11.3346 9.9925 10.0692 11.232 8.5135 11.232ZM14.0745 3.91672C14.0745 4.49112 13.6071 4.95678 13.0304 4.95678C12.4538 4.95678 11.9863 4.49112 11.9863 3.91672C11.9863 3.34235 12.4538 2.8767 13.0304 2.8767C13.6071 2.8767 14.0745 3.34235 14.0745 3.91672Z" fill="#28334A"/>
</svg>
