<svg width="20" height="17" viewBox="0 0 20 17" fill="none" xmlns="http://www.w3.org/2000/svg">
<path d="M17.6728 0.866072C17.6728 0.866072 19.3842 0.198778 19.2416 1.81941C19.194 2.48675 18.7662 4.82237 18.4334 7.34866L17.2925 14.8322C17.2925 14.8322 17.1974 15.9286 16.3417 16.1192C15.486 16.3099 14.2025 15.4519 13.9648 15.2612C13.7746 15.1182 10.3994 12.9732 9.21095 11.9246C8.87817 11.6386 8.49785 11.0666 9.25846 10.3993L14.2501 5.63271C14.8205 5.06072 15.391 3.72606 13.014 5.3467L6.35866 9.87498C6.35866 9.87498 5.59801 10.3516 4.17188 9.92264L1.08187 8.96933C1.08187 8.96933 -0.0590653 8.25434 1.89002 7.53932C6.64389 5.299 12.4911 3.01104 17.6728 0.866072Z" fill="#28334A"/>
</svg>
