<svg width="298" height="315" viewBox="0 0 298 315" fill="none" xmlns="http://www.w3.org/2000/svg">
<path d="M138.934 0.5L171.923 57.2261C184.019 77.9161 184.019 102.306 171.923 122.996L74.9974 290.434C60.8591 314.96 31.9542 330.443 0.378647 330.443H-52.4043L138.934 0.5Z" fill="#28334A" fill-opacity="0.02"/>
<path d="M296.025 308.513C296.653 308.376 297.124 308.376 297.596 308.239C285.657 319.475 269.319 327.422 250.468 329.751C206.639 335.369 165.795 308.787 159.355 270.422C153.071 232.604 182.761 197.39 225.804 191.224C209.781 206.297 201.298 227.261 205.068 249.184C211.352 287.549 252.039 314.131 296.025 308.513Z" fill="#28334A" fill-opacity="0.02"/>
<ellipse cx="253.944" cy="212.408" rx="22.2491" ry="22.1786" fill="#28334A" fill-opacity="0.02"/>
</svg>
