<svg width="293" height="308" viewBox="0 0 293 308" fill="none" xmlns="http://www.w3.org/2000/svg">
<path d="M161.694 306.482L127.934 249.826C115.557 229.161 115.279 204.907 127.184 184.421L222.559 18.6312C236.47 -5.65431 265.306 -20.8372 296.999 -20.6031L349.978 -20.2116L161.694 306.482Z" fill="#28334A" fill-opacity="0.02"/>
<path d="M2.5975 0.438983C1.96986 0.570099 1.49797 0.566648 1.02763 0.698921C12.8547 -10.3442 29.1235 -18.097 47.9729 -20.2658C91.7956 -25.5085 132.996 1.12666 139.881 39.1824C146.603 76.694 117.273 111.362 74.2435 117.153C90.1167 102.339 98.3725 81.6328 94.3481 59.886C87.6201 21.8314 46.5775 -4.80257 2.5975 0.438983Z" fill="#28334A" fill-opacity="0.02"/>
<ellipse rx="22.2771" ry="21.9718" transform="matrix(-1.00004 -0.00735486 -0.0114723 -0.999955 45.7064 96.9356)" fill="#28334A" fill-opacity="0.02"/>
</svg>
