<svg width="319" height="59" viewBox="0 0 319 59" fill="none" xmlns="http://www.w3.org/2000/svg">
<path d="M24.0556 23.8499H8.85021L7.36447 27.3759C6.43907 29.5721 4.28785 31 1.90465 31H0L13.699 0H19.2539L33 31H31.0245C28.6533 31 26.5105 29.5862 25.5776 27.4063L24.0556 23.8499ZM22.1726 19.339L16.4294 5.80649L10.7332 19.339H22.1726Z" fill="white"/>
<path d="M43.1412 30.0161C40.588 28.6189 38.613 26.7398 37.1678 24.2827C35.7226 21.8737 35 19.1274 35 16.0439C35 13.0086 35.7226 10.2623 37.1678 7.80515C38.613 5.39616 40.6362 3.46895 43.1412 2.07173C45.6462 0.674513 48.4884 0 51.6678 0C54.2209 0 56.5332 0.433613 58.6528 1.34903C60.7724 2.21627 62.5548 3.51713 64 5.20343C61.9236 7.14704 58.6978 6.84762 56.0498 5.80964C54.7804 5.31206 53.4029 5.05889 51.9086 5.05889C49.789 5.05889 47.8621 5.54067 46.1761 6.45609C44.49 7.37151 43.1894 8.67239 42.2259 10.3587C41.2625 11.9968 40.7807 13.924 40.7807 15.9957C40.7807 18.1157 41.2625 19.9947 42.2259 21.6328C43.1894 23.2709 44.49 24.5718 46.1761 25.5354C47.8621 26.4508 49.789 26.9326 51.9086 26.9326C53.3849 26.9326 54.7633 26.6782 56.0394 26.1738C58.6884 25.1268 61.9338 24.8275 64 26.788C62.5548 28.4743 60.7724 29.7752 58.6528 30.6424C56.5332 31.5097 54.2209 31.9915 51.6678 31.9915C48.4884 32.0878 45.6462 31.3651 43.1412 30.0161Z" fill="white"/>
<path d="M108 0V31C104.918 31 102.42 28.5019 102.42 25.4203V4.89474H86.5797V25.4203C86.5797 28.5019 84.0816 31 81 31V0H108Z" fill="white"/>
<path d="M136.8 1.34365C138.819 2.20743 140.309 3.5031 141.414 5.13468C142.471 6.76626 143 8.73375 143 11.0372C143 13.2926 142.471 15.2601 141.414 16.8917C140.357 18.5712 138.819 19.8189 136.8 20.7307C134.782 21.5944 132.475 22.0743 129.784 22.0743H122.767V25.2329C122.767 28.418 120.185 31 117 31V0H129.784C132.475 0 134.83 0.479871 136.8 1.34365ZM135.262 15.596C136.56 14.5403 137.233 13.0046 137.233 11.0372C137.233 9.06966 136.56 7.53406 135.262 6.47833C133.965 5.4226 132.043 4.89474 129.543 4.89474H122.815V17.2275H129.543C132.043 17.2275 133.917 16.6517 135.262 15.596Z" fill="white"/>
<path d="M171 27.1532V32H152.608C150.063 32 148 29.9369 148 27.3919V1H170.43C170.43 3.67679 168.26 5.84676 165.583 5.84676H153.702V13.9087H168.529V18.6594H153.702V27.2012H171V27.1532Z" fill="white"/>
<path d="M211 31C207.948 31 205.472 28.5295 205.464 25.4774L205.429 10.4613L195.249 27.4489H192.655L182.475 10.7012V25.5254C182.475 28.5489 180.024 31 177 31V0H181.754L194.048 20.4907L206.198 0H210.904L211 31Z" fill="white"/>
<path d="M219 0H224.522V22.0263L240.759 0H246V31C242.95 31 240.478 28.5279 240.478 25.4783V9.02167L224.241 31H219V0Z" fill="white"/>
<path d="M282 0L268.682 25.2606C267.498 27.4909 266.123 29.1879 264.512 30.303C262.9 31.4182 261.147 32 259.251 32C257.735 32 256.218 31.6606 254.749 31.0303L255.261 29.3881C255.761 27.7846 257.477 27.0545 259.156 27.0545C261.005 27.0545 262.521 26.0848 263.706 24.1455L264.18 23.3697L252 0H258.066L267.118 18.3757L276.455 0H282Z" fill="white"/>
<path d="M319 31C315.948 31 313.472 28.5295 313.464 25.4774L313.429 10.4613L303.249 27.4489H300.655L290.475 10.7012V25.5254C290.475 28.5489 288.024 31 285 31V0H289.754L302.048 20.4907L314.198 0H318.904L319 31Z" fill="white"/>
<path d="M4.06514 56.0807C3.28511 56.0807 2.58509 55.9102 1.96507 55.5691C1.35505 55.228 0.875029 54.7515 0.525017 54.1395C0.175006 53.5176 0 52.8203 0 52.0479C0 51.2754 0.175006 50.5832 0.525017 49.9713C0.875029 49.3593 1.35505 48.8828 1.96507 48.5417C2.58509 48.2006 3.28511 48.0301 4.06514 48.0301C4.74516 48.0301 5.35018 48.1655 5.8802 48.4364C6.42021 48.6972 6.84523 49.0834 7.15524 49.5951L6.36021 50.1368C6.1002 49.7456 5.77019 49.4546 5.37018 49.264C4.97017 49.0634 4.53515 48.9631 4.06514 48.9631C3.49512 48.9631 2.9801 49.0935 2.52008 49.3543C2.07007 49.6051 1.71506 49.9663 1.45505 50.4378C1.20504 50.9093 1.08004 51.446 1.08004 52.0479C1.08004 52.6598 1.20504 53.2016 1.45505 53.6731C1.71506 54.1345 2.07007 54.4957 2.52008 54.7565C2.9801 55.0073 3.49512 55.1327 4.06514 55.1327C4.53515 55.1327 4.97017 55.0374 5.37018 54.8468C5.77019 54.6562 6.1002 54.3653 6.36021 53.974L7.15524 54.5157C6.84523 55.0274 6.42021 55.4186 5.8802 55.6895C5.34018 55.9503 4.73516 56.0807 4.06514 56.0807Z" fill="white"/>
<path d="M14.4408 56.0807C13.6808 56.0807 12.9957 55.9102 12.3857 55.5691C11.7757 55.218 11.2957 54.7364 10.9457 54.1245C10.5957 53.5125 10.4207 52.8203 10.4207 52.0479C10.4207 51.2754 10.5957 50.5832 10.9457 49.9713C11.2957 49.3593 11.7757 48.8828 12.3857 48.5417C12.9957 48.2006 13.6808 48.0301 14.4408 48.0301C15.2008 48.0301 15.8858 48.2006 16.4959 48.5417C17.1059 48.8828 17.5809 49.3593 17.9209 49.9713C18.2709 50.5832 18.4459 51.2754 18.4459 52.0479C18.4459 52.8203 18.2709 53.5125 17.9209 54.1245C17.5809 54.7364 17.1059 55.218 16.4959 55.5691C15.8858 55.9102 15.2008 56.0807 14.4408 56.0807ZM14.4408 55.1327C15.0008 55.1327 15.5008 55.0073 15.9408 54.7565C16.3909 54.4957 16.7409 54.1295 16.9909 53.658C17.2409 53.1865 17.3659 52.6498 17.3659 52.0479C17.3659 51.446 17.2409 50.9093 16.9909 50.4378C16.7409 49.9663 16.3909 49.6051 15.9408 49.3543C15.5008 49.0935 15.0008 48.9631 14.4408 48.9631C13.8808 48.9631 13.3758 49.0935 12.9257 49.3543C12.4857 49.6051 12.1357 49.9663 11.8757 50.4378C11.6257 50.9093 11.5007 51.446 11.5007 52.0479C11.5007 52.6498 11.6257 53.1865 11.8757 53.658C12.1357 54.1295 12.4857 54.4957 12.9257 54.7565C13.3758 55.0073 13.8808 55.1327 14.4408 55.1327Z" fill="white"/>
<path d="M26.6037 51.8824C27.1638 52.0128 27.5938 52.2385 27.8938 52.5595C28.2038 52.8805 28.3588 53.2718 28.3588 53.7332C28.3588 54.1947 28.1988 54.606 27.8788 54.9672C27.5688 55.3283 27.1438 55.6092 26.6037 55.8099C26.0637 56.0005 25.4687 56.0958 24.8187 56.0958C24.2487 56.0958 23.6886 56.0155 23.1386 55.855C22.5886 55.6845 22.1086 55.4387 21.6986 55.1176L22.0586 54.3201C22.4186 54.591 22.8386 54.8016 23.3186 54.9521C23.7986 55.1026 24.2837 55.1778 24.7737 55.1778C25.5037 55.1778 26.0987 55.0424 26.5587 54.7715C27.0288 54.4907 27.2638 54.1145 27.2638 53.643C27.2638 53.2216 27.0738 52.8956 26.6937 52.6648C26.3137 52.4241 25.7937 52.3037 25.1337 52.3037H23.7836V51.5212H25.0737C25.6637 51.5212 26.1387 51.4109 26.4987 51.1902C26.8587 50.9594 27.0388 50.6534 27.0388 50.2722C27.0388 49.8509 26.8337 49.5198 26.4237 49.2791C26.0237 49.0383 25.4987 48.9179 24.8487 48.9179C23.9987 48.9179 23.1586 49.1336 22.3286 49.565L22.0286 48.7373C22.9686 48.2458 23.9437 48 24.9537 48C25.5537 48 26.0937 48.0903 26.5737 48.2709C27.0638 48.4414 27.4438 48.6872 27.7138 49.0082C27.9938 49.3292 28.1338 49.7004 28.1338 50.1218C28.1338 50.523 27.9938 50.8792 27.7138 51.1902C27.4438 51.5011 27.0738 51.7319 26.6037 51.8824Z" fill="white"/>
<path d="M40.1669 48.0903V55.0424C40.1669 56.3867 39.8369 57.3798 39.1769 58.0219C38.5268 58.674 37.5418 59 36.2218 59C35.4917 59 34.7967 58.8896 34.1367 58.6689C33.4867 58.4583 32.9566 58.1623 32.5466 57.7811L33.0867 56.9685C33.4667 57.3096 33.9267 57.5755 34.4667 57.7661C35.0167 57.9567 35.5917 58.052 36.1918 58.052C37.1918 58.052 37.9268 57.8162 38.3968 57.3447C38.8668 56.8833 39.1019 56.161 39.1019 55.1778V54.1696C38.7718 54.6712 38.3368 55.0524 37.7968 55.3133C37.2668 55.5741 36.6768 55.7045 36.0267 55.7045C35.2867 55.7045 34.6117 55.544 34.0017 55.223C33.4017 54.8919 32.9266 54.4355 32.5766 53.8536C32.2366 53.2617 32.0666 52.5946 32.0666 51.8523C32.0666 51.1099 32.2366 50.4478 32.5766 49.8659C32.9266 49.2841 33.4017 48.8326 34.0017 48.5116C34.6017 48.1906 35.2767 48.0301 36.0267 48.0301C36.6968 48.0301 37.3018 48.1655 37.8418 48.4364C38.3818 48.7073 38.8168 49.0985 39.1469 49.6101V48.0903H40.1669ZM36.1318 54.7565C36.7018 54.7565 37.2168 54.6361 37.6768 54.3953C38.1368 54.1446 38.4918 53.7984 38.7418 53.357C39.0018 52.9156 39.1319 52.414 39.1319 51.8523C39.1319 51.2905 39.0018 50.7939 38.7418 50.3625C38.4918 49.9211 38.1368 49.58 37.6768 49.3393C37.2268 49.0885 36.7118 48.9631 36.1318 48.9631C35.5617 48.9631 35.0467 49.0834 34.5867 49.3242C34.1367 49.565 33.7817 49.9061 33.5217 50.3475C33.2717 50.7889 33.1467 51.2905 33.1467 51.8523C33.1467 52.414 33.2717 52.9156 33.5217 53.357C33.7817 53.7984 34.1367 54.1446 34.5867 54.3953C35.0467 54.6361 35.5617 54.7565 36.1318 54.7565Z" fill="white"/>
<path d="M52.4744 48.0903V56.0055H51.4544V54.4405C51.1344 54.9722 50.7094 55.3785 50.1794 55.6594C49.6594 55.9403 49.0693 56.0807 48.4093 56.0807C47.6693 56.0807 46.9993 55.9102 46.3992 55.5691C45.7992 55.228 45.3292 54.7515 44.9892 54.1395C44.6492 53.5276 44.4792 52.8304 44.4792 52.0479C44.4792 51.2654 44.6492 50.5682 44.9892 49.9562C45.3292 49.3443 45.7992 48.8728 46.3992 48.5417C46.9993 48.2006 47.6693 48.0301 48.4093 48.0301C49.0493 48.0301 49.6244 48.1655 50.1344 48.4364C50.6544 48.6972 51.0794 49.0834 51.4094 49.5951V48.0903H52.4744ZM48.4993 55.1327C49.0493 55.1327 49.5443 55.0073 49.9844 54.7565C50.4344 54.4957 50.7844 54.1295 51.0344 53.658C51.2944 53.1865 51.4244 52.6498 51.4244 52.0479C51.4244 51.446 51.2944 50.9093 51.0344 50.4378C50.7844 49.9663 50.4344 49.6051 49.9844 49.3543C49.5443 49.0935 49.0493 48.9631 48.4993 48.9631C47.9393 48.9631 47.4343 49.0935 46.9843 49.3543C46.5442 49.6051 46.1942 49.9663 45.9342 50.4378C45.6842 50.9093 45.5592 51.446 45.5592 52.0479C45.5592 52.6498 45.6842 53.1865 45.9342 53.658C46.1942 54.1295 46.5442 54.4957 46.9843 54.7565C47.4343 55.0073 47.9393 55.1327 48.4993 55.1327Z" fill="white"/>
<path d="M62.5958 51.9124C63.6658 52.1632 64.2009 52.8103 64.2009 53.8536C64.2009 54.5458 63.9458 55.0775 63.4358 55.4487C62.9258 55.8199 62.1658 56.0055 61.1558 56.0055H57.5706V48.0903H61.0508C61.9508 48.0903 62.6558 48.2658 63.1658 48.617C63.6758 48.9681 63.9308 49.4697 63.9308 50.1218C63.9308 50.5531 63.8108 50.9243 63.5708 51.2353C63.3408 51.5363 63.0158 51.762 62.5958 51.9124ZM58.6057 51.6115H60.9757C61.5858 51.6115 62.0508 51.4961 62.3708 51.2654C62.7008 51.0347 62.8658 50.6986 62.8658 50.2572C62.8658 49.8158 62.7008 49.4847 62.3708 49.264C62.0508 49.0433 61.5858 48.933 60.9757 48.933H58.6057V51.6115ZM61.1107 55.1628C61.7908 55.1628 62.3008 55.0524 62.6408 54.8317C62.9808 54.611 63.1508 54.2649 63.1508 53.7934C63.1508 53.3219 62.9958 52.9758 62.6858 52.7551C62.3758 52.5244 61.8858 52.409 61.2158 52.409H58.6057V55.1628H61.1107Z" fill="white"/>
<path d="M75.9672 48.0903V56.0055H74.9472V54.4405C74.6272 54.9722 74.2022 55.3785 73.6721 55.6594C73.1521 55.9403 72.5621 56.0807 71.9021 56.0807C71.1621 56.0807 70.492 55.9102 69.892 55.5691C69.292 55.228 68.822 54.7515 68.482 54.1395C68.142 53.5276 67.972 52.8304 67.972 52.0479C67.972 51.2654 68.142 50.5682 68.482 49.9562C68.822 49.3443 69.292 48.8728 69.892 48.5417C70.492 48.2006 71.1621 48.0301 71.9021 48.0301C72.5421 48.0301 73.1171 48.1655 73.6271 48.4364C74.1472 48.6972 74.5722 49.0834 74.9022 49.5951V48.0903H75.9672ZM71.9921 55.1327C72.5421 55.1327 73.0371 55.0073 73.4771 54.7565C73.9272 54.4957 74.2772 54.1295 74.5272 53.658C74.7872 53.1865 74.9172 52.6498 74.9172 52.0479C74.9172 51.446 74.7872 50.9093 74.5272 50.4378C74.2772 49.9663 73.9272 49.6051 73.4771 49.3543C73.0371 49.0935 72.5421 48.9631 71.9921 48.9631C71.4321 48.9631 70.9271 49.0935 70.477 49.3543C70.037 49.6051 69.687 49.9663 69.427 50.4378C69.177 50.9093 69.052 51.446 69.052 52.0479C69.052 52.6498 69.177 53.1865 69.427 53.658C69.687 54.1295 70.037 54.4957 70.477 54.7565C70.9271 55.0073 71.4321 55.1327 71.9921 55.1327Z" fill="white"/>
<path d="M87.1236 48.0903V56.0055H86.1486V53.3871H83.3735L81.5434 56.0055H80.3884L82.3534 53.2367C81.7434 53.0661 81.2734 52.7752 80.9434 52.3639C80.6134 51.9526 80.4484 51.4309 80.4484 50.7989C80.4484 49.9161 80.7484 49.244 81.3484 48.7825C81.9484 48.321 82.7685 48.0903 83.8085 48.0903H87.1236ZM81.5284 50.829C81.5284 52.0027 82.2734 52.5896 83.7635 52.5896H86.1486V49.0383H83.8385C82.2984 49.0383 81.5284 49.6352 81.5284 50.829Z" fill="white"/>
<path d="M105.367 48.0903V56.0055H104.302V49.0383H99.3515V56.0055H98.2864V48.0903H105.367Z" fill="white"/>
<path d="M114.124 48.0301C114.894 48.0301 115.579 48.2006 116.179 48.5417C116.779 48.8828 117.244 49.3593 117.575 49.9713C117.915 50.5832 118.085 51.2804 118.085 52.0629C118.085 52.8454 117.92 53.5426 117.59 54.1546C117.259 54.7565 116.799 55.228 116.209 55.5691C115.629 55.9102 114.964 56.0807 114.214 56.0807C113.554 56.0807 112.964 55.9503 112.444 55.6895C111.934 55.4186 111.519 55.0324 111.199 54.5308V58.9248H110.134V52.078C110.134 51.2855 110.299 50.5832 110.629 49.9713C110.969 49.3593 111.439 48.8828 112.039 48.5417C112.649 48.2006 113.344 48.0301 114.124 48.0301ZM114.094 55.1477C114.654 55.1477 115.159 55.0173 115.609 54.7565C116.059 54.4957 116.409 54.1295 116.659 53.658C116.909 53.1865 117.035 52.6548 117.035 52.0629C117.035 51.471 116.909 50.9394 116.659 50.4679C116.409 49.9964 116.059 49.6302 115.609 49.3694C115.159 49.0985 114.654 48.9631 114.094 48.9631C113.534 48.9631 113.029 49.0935 112.579 49.3543C112.139 49.6151 111.794 49.9813 111.544 50.4528C111.304 50.9143 111.184 51.446 111.184 52.0479C111.184 52.6498 111.304 53.1865 111.544 53.658C111.794 54.1295 112.139 54.4957 112.579 54.7565C113.029 55.0173 113.534 55.1477 114.094 55.1477Z" fill="white"/>
<path d="M125.737 56.0807C124.977 56.0807 124.292 55.9102 123.682 55.5691C123.072 55.218 122.592 54.7364 122.242 54.1245C121.892 53.5125 121.717 52.8203 121.717 52.0479C121.717 51.2754 121.892 50.5832 122.242 49.9713C122.592 49.3593 123.072 48.8828 123.682 48.5417C124.292 48.2006 124.977 48.0301 125.737 48.0301C126.498 48.0301 127.183 48.2006 127.793 48.5417C128.403 48.8828 128.878 49.3593 129.218 49.9713C129.568 50.5832 129.743 51.2754 129.743 52.0479C129.743 52.8203 129.568 53.5125 129.218 54.1245C128.878 54.7364 128.403 55.218 127.793 55.5691C127.183 55.9102 126.498 56.0807 125.737 56.0807ZM125.737 55.1327C126.297 55.1327 126.798 55.0073 127.238 54.7565C127.688 54.4957 128.038 54.1295 128.288 53.658C128.538 53.1865 128.663 52.6498 128.663 52.0479C128.663 51.446 128.538 50.9093 128.288 50.4378C128.038 49.9663 127.688 49.6051 127.238 49.3543C126.798 49.0935 126.297 48.9631 125.737 48.9631C125.177 48.9631 124.672 49.0935 124.222 49.3543C123.782 49.6051 123.432 49.9663 123.172 50.4378C122.922 50.9093 122.797 51.446 122.797 52.0479C122.797 52.6498 122.922 53.1865 123.172 53.658C123.432 54.1295 123.782 54.4957 124.222 54.7565C124.672 55.0073 125.177 55.1327 125.737 55.1327Z" fill="white"/>
<path d="M137.419 56.0807C136.639 56.0807 135.939 55.9102 135.319 55.5691C134.709 55.228 134.229 54.7515 133.879 54.1395C133.529 53.5176 133.354 52.8203 133.354 52.0479C133.354 51.2754 133.529 50.5832 133.879 49.9713C134.229 49.3593 134.709 48.8828 135.319 48.5417C135.939 48.2006 136.639 48.0301 137.419 48.0301C138.099 48.0301 138.704 48.1655 139.234 48.4364C139.774 48.6972 140.199 49.0834 140.509 49.5951L139.714 50.1368C139.454 49.7456 139.124 49.4546 138.724 49.264C138.324 49.0634 137.889 48.9631 137.419 48.9631C136.849 48.9631 136.334 49.0935 135.874 49.3543C135.424 49.6051 135.069 49.9663 134.809 50.4378C134.559 50.9093 134.434 51.446 134.434 52.0479C134.434 52.6598 134.559 53.2016 134.809 53.6731C135.069 54.1345 135.424 54.4957 135.874 54.7565C136.334 55.0073 136.849 55.1327 137.419 55.1327C137.889 55.1327 138.324 55.0374 138.724 54.8468C139.124 54.6562 139.454 54.3653 139.714 53.974L140.509 54.5157C140.199 55.0274 139.774 55.4186 139.234 55.6895C138.694 55.9503 138.089 56.0807 137.419 56.0807Z" fill="white"/>
<path d="M154.512 48.0301C155.502 48.0301 156.277 48.316 156.837 48.8878C157.407 49.4596 157.692 50.3023 157.692 51.4159V56.0055H156.627V51.5212C156.627 50.6986 156.427 50.0716 156.027 49.6402C155.637 49.2088 155.082 48.9932 154.362 48.9932C153.542 48.9932 152.897 49.249 152.427 49.7606C151.957 50.2622 151.722 50.9594 151.722 51.8523V56.0055H150.657V51.5212C150.657 50.6986 150.457 50.0716 150.057 49.6402C149.667 49.2088 149.107 48.9932 148.377 48.9932C147.566 48.9932 146.921 49.249 146.441 49.7606C145.971 50.2622 145.736 50.9594 145.736 51.8523V56.0055H144.671V48.0903H145.691V49.5349C145.971 49.0534 146.361 48.6822 146.861 48.4213C147.361 48.1605 147.936 48.0301 148.587 48.0301C149.247 48.0301 149.817 48.1705 150.297 48.4514C150.787 48.7323 151.152 49.1487 151.392 49.7004C151.682 49.1788 152.097 48.7725 152.637 48.4815C153.187 48.1806 153.812 48.0301 154.512 48.0301Z" fill="white"/>
<path d="M166.208 48.0301C166.978 48.0301 167.663 48.2006 168.263 48.5417C168.863 48.8828 169.328 49.3593 169.658 49.9713C169.998 50.5832 170.168 51.2804 170.168 52.0629C170.168 52.8454 170.003 53.5426 169.673 54.1546C169.343 54.7565 168.883 55.228 168.293 55.5691C167.713 55.9102 167.048 56.0807 166.298 56.0807C165.638 56.0807 165.048 55.9503 164.528 55.6895C164.018 55.4186 163.603 55.0324 163.283 54.5308V58.9248H162.218V52.078C162.218 51.2855 162.383 50.5832 162.713 49.9713C163.053 49.3593 163.523 48.8828 164.123 48.5417C164.733 48.2006 165.428 48.0301 166.208 48.0301ZM166.178 55.1477C166.738 55.1477 167.243 55.0173 167.693 54.7565C168.143 54.4957 168.493 54.1295 168.743 53.658C168.993 53.1865 169.118 52.6548 169.118 52.0629C169.118 51.471 168.993 50.9394 168.743 50.4679C168.493 49.9964 168.143 49.6302 167.693 49.3694C167.243 49.0985 166.738 48.9631 166.178 48.9631C165.618 48.9631 165.113 49.0935 164.663 49.3543C164.223 49.6151 163.878 49.9813 163.628 50.4528C163.388 50.9143 163.268 51.446 163.268 52.0479C163.268 52.6498 163.388 53.1865 163.628 53.658C163.878 54.1295 164.223 54.4957 164.663 54.7565C165.113 55.0173 165.618 55.1477 166.178 55.1477Z" fill="white"/>
<path d="M181.736 48.0903V56.0055H180.716V54.4405C180.396 54.9722 179.971 55.3785 179.441 55.6594C178.921 55.9403 178.331 56.0807 177.671 56.0807C176.931 56.0807 176.261 55.9102 175.661 55.5691C175.061 55.228 174.591 54.7515 174.251 54.1395C173.911 53.5276 173.741 52.8304 173.741 52.0479C173.741 51.2654 173.911 50.5682 174.251 49.9562C174.591 49.3443 175.061 48.8728 175.661 48.5417C176.261 48.2006 176.931 48.0301 177.671 48.0301C178.311 48.0301 178.886 48.1655 179.396 48.4364C179.916 48.6972 180.341 49.0834 180.671 49.5951V48.0903H181.736ZM177.761 55.1327C178.311 55.1327 178.806 55.0073 179.246 54.7565C179.696 54.4957 180.046 54.1295 180.296 53.658C180.556 53.1865 180.686 52.6498 180.686 52.0479C180.686 51.446 180.556 50.9093 180.296 50.4378C180.046 49.9663 179.696 49.6051 179.246 49.3543C178.806 49.0935 178.311 48.9631 177.761 48.9631C177.201 48.9631 176.696 49.0935 176.246 49.3543C175.806 49.6051 175.456 49.9663 175.196 50.4378C174.946 50.9093 174.821 51.446 174.821 52.0479C174.821 52.6498 174.946 53.1865 175.196 53.658C175.456 54.1295 175.806 54.4957 176.246 54.7565C176.696 55.0073 177.201 55.1327 177.761 55.1327Z" fill="white"/>
<path d="M186.832 48.0903H187.897V51.5964H192.862V48.0903H193.927V56.0055H192.862V52.5144H187.897V56.0055H186.832V48.0903Z" fill="white"/>
<path d="M202.355 56.0807C201.575 56.0807 200.875 55.9102 200.255 55.5691C199.645 55.228 199.165 54.7515 198.815 54.1395C198.465 53.5176 198.29 52.8203 198.29 52.0479C198.29 51.2754 198.465 50.5832 198.815 49.9713C199.165 49.3593 199.645 48.8828 200.255 48.5417C200.875 48.2006 201.575 48.0301 202.355 48.0301C203.035 48.0301 203.64 48.1655 204.17 48.4364C204.71 48.6972 205.135 49.0834 205.445 49.5951L204.65 50.1368C204.39 49.7456 204.06 49.4546 203.66 49.264C203.26 49.0634 202.825 48.9631 202.355 48.9631C201.785 48.9631 201.27 49.0935 200.81 49.3543C200.36 49.6051 200.005 49.9663 199.745 50.4378C199.495 50.9093 199.37 51.446 199.37 52.0479C199.37 52.6598 199.495 53.2016 199.745 53.6731C200.005 54.1345 200.36 54.4957 200.81 54.7565C201.27 55.0073 201.785 55.1327 202.355 55.1327C202.825 55.1327 203.26 55.0374 203.66 54.8468C204.06 54.6562 204.39 54.3653 204.65 53.974L205.445 54.5157C205.135 55.0274 204.71 55.4186 204.17 55.6895C203.63 55.9503 203.025 56.0807 202.355 56.0807Z" fill="white"/>
<path d="M219.447 48.0301C220.437 48.0301 221.213 48.316 221.773 48.8878C222.343 49.4596 222.628 50.3023 222.628 51.4159V56.0055H221.563V51.5212C221.563 50.6986 221.363 50.0716 220.963 49.6402C220.573 49.2088 220.017 48.9932 219.297 48.9932C218.477 48.9932 217.832 49.249 217.362 49.7606C216.892 50.2622 216.657 50.9594 216.657 51.8523V56.0055H215.592V51.5212C215.592 50.6986 215.392 50.0716 214.992 49.6402C214.602 49.2088 214.042 48.9932 213.312 48.9932C212.502 48.9932 211.857 49.249 211.377 49.7606C210.907 50.2622 210.672 50.9594 210.672 51.8523V56.0055H209.607V48.0903H210.627V49.5349C210.907 49.0534 211.297 48.6822 211.797 48.4213C212.297 48.1605 212.872 48.0301 213.522 48.0301C214.182 48.0301 214.752 48.1705 215.232 48.4514C215.722 48.7323 216.087 49.1487 216.327 49.7004C216.617 49.1788 217.032 48.7725 217.572 48.4815C218.122 48.1806 218.747 48.0301 219.447 48.0301Z" fill="white"/>
<path d="M232.539 51.9124C233.609 52.1632 234.144 52.8103 234.144 53.8536C234.144 54.5458 233.889 55.0775 233.379 55.4487C232.869 55.8199 232.109 56.0055 231.099 56.0055H227.513V48.0903H230.994C231.894 48.0903 232.599 48.2658 233.109 48.617C233.619 48.9681 233.874 49.4697 233.874 50.1218C233.874 50.5531 233.754 50.9243 233.514 51.2353C233.284 51.5363 232.959 51.762 232.539 51.9124ZM228.548 51.6115H230.919C231.529 51.6115 231.994 51.4961 232.314 51.2654C232.644 51.0347 232.809 50.6986 232.809 50.2572C232.809 49.8158 232.644 49.4847 232.314 49.264C231.994 49.0433 231.529 48.933 230.919 48.933H228.548V51.6115ZM231.054 55.1628C231.734 55.1628 232.244 55.0524 232.584 54.8317C232.924 54.611 233.094 54.2649 233.094 53.7934C233.094 53.3219 232.939 52.9758 232.629 52.7551C232.319 52.5244 231.829 52.409 231.159 52.409H228.548V55.1628H231.054Z" fill="white"/>
<path d="M241.995 56.0807C241.235 56.0807 240.55 55.9102 239.94 55.5691C239.33 55.218 238.85 54.7364 238.5 54.1245C238.15 53.5125 237.975 52.8203 237.975 52.0479C237.975 51.2754 238.15 50.5832 238.5 49.9713C238.85 49.3593 239.33 48.8828 239.94 48.5417C240.55 48.2006 241.235 48.0301 241.995 48.0301C242.755 48.0301 243.44 48.2006 244.05 48.5417C244.66 48.8828 245.135 49.3593 245.475 49.9713C245.825 50.5832 246 51.2754 246 52.0479C246 52.8203 245.825 53.5125 245.475 54.1245C245.135 54.7364 244.66 55.218 244.05 55.5691C243.44 55.9102 242.755 56.0807 241.995 56.0807ZM241.995 55.1327C242.555 55.1327 243.055 55.0073 243.495 54.7565C243.945 54.4957 244.295 54.1295 244.545 53.658C244.795 53.1865 244.92 52.6498 244.92 52.0479C244.92 51.446 244.795 50.9093 244.545 50.4378C244.295 49.9663 243.945 49.6051 243.495 49.3543C243.055 49.0935 242.555 48.9631 241.995 48.9631C241.435 48.9631 240.93 49.0935 240.48 49.3543C240.04 49.6051 239.69 49.9663 239.43 50.4378C239.18 50.9093 239.055 51.446 239.055 52.0479C239.055 52.6498 239.18 53.1865 239.43 53.658C239.69 54.1295 240.04 54.4957 240.48 54.7565C240.93 55.0073 241.435 55.1327 241.995 55.1327Z" fill="white"/>
</svg>
