<svg width="259" height="49" viewBox="0 0 259 49" fill="none" xmlns="http://www.w3.org/2000/svg">
<path d="M19.6819 20.0031H7.24108L6.28552 22.3278C5.37225 24.5496 3.20783 26 0.805682 26H0L11.2083 0H15.7532L27 26H26.1323C23.742 26 21.5858 24.5636 20.6649 22.3578L19.6819 20.0031ZM18.1412 16.2198L13.4422 4.86996L8.78174 16.2198H18.1412Z" fill="#28334A"/>
<path d="M35.4568 25.3261C33.4319 24.1472 31.8654 22.5617 30.7193 20.4885C29.5731 18.4559 29 16.1388 29 13.5371C29 10.976 29.5731 8.65884 30.7193 6.5856C31.8654 4.55301 33.4701 2.92693 35.4568 1.74802C37.4435 0.56912 39.6977 0 42.2193 0C44.2442 0 46.0781 0.365861 47.7591 1.13825C49.4402 1.86998 50.8538 2.96758 52 4.39039C50.3837 5.99989 47.7708 5.75668 45.6616 4.88819C44.664 4.47741 43.5825 4.26844 42.4103 4.26844C40.7292 4.26844 39.201 4.67494 37.8638 5.44733C36.5266 6.21971 35.495 7.31733 34.7309 8.74014C33.9668 10.1223 33.5847 11.7484 33.5847 13.4964C33.5847 15.2851 33.9668 16.8705 34.7309 18.2527C35.495 19.6348 36.5266 20.7324 37.8638 21.5455C39.201 22.3178 40.7292 22.7244 42.4103 22.7244C43.5681 22.7244 44.6501 22.5144 45.6528 22.0982C47.7626 21.2223 50.3923 20.9795 52 22.6024C50.8538 24.0252 49.4402 25.1228 47.7591 25.8545C46.0781 26.5863 44.2442 26.9928 42.2193 26.9928C39.6977 27.0741 37.4435 26.4643 35.4568 25.3261Z" fill="#28334A"/>
<path d="M88 0V26C85.4891 26 83.4536 23.9645 83.4536 21.4536V4.10527H70.5464V21.4536C70.5464 23.9645 68.5109 26 66 26V0H88Z" fill="#28334A"/>
<path d="M110.993 1.12693C112.623 1.85139 113.826 2.93809 114.719 4.30651C115.573 5.67493 116 7.32508 116 9.25697C116 11.1486 115.573 12.7988 114.719 14.1672C113.865 15.5759 112.623 16.6223 110.993 17.387C109.362 18.1115 107.499 18.5139 105.325 18.5139H99.658V21.342C99.658 23.9145 97.5726 26 95 26V0H105.325C107.499 0 109.401 0.402472 110.993 1.12693ZM109.75 13.0805C110.799 12.1951 111.342 10.9071 111.342 9.25697C111.342 7.60681 110.799 6.31889 109.75 5.43344C108.702 4.54799 107.15 4.10527 105.131 4.10527H99.6969V14.4489H105.131C107.15 14.4489 108.664 13.966 109.75 13.0805Z" fill="#28334A"/>
<path d="M139 21.935V26H124.608C122.063 26 120 23.9369 120 21.3919V0H138.529C138.529 2.24505 136.709 4.06503 134.464 4.06503H124.711V10.8266H136.959V14.8111H124.711V21.9752H139V21.935Z" fill="#28334A"/>
<path d="M171 26C168.576 26 166.61 24.0381 166.605 21.6144L166.576 8.77399L158.492 23.0217H156.432L148.347 8.97523V21.6525C148.347 24.0536 146.401 26 144 26V0H147.775L157.538 17.1858L167.186 0H170.924L171 26Z" fill="#28334A"/>
<path d="M178 0H182.499V18.4737L195.73 0H200V26C197.515 26 195.501 23.9857 195.501 21.5009V7.56656L182.27 26H178V0Z" fill="#28334A"/>
<path d="M228 0L217.346 21.3136C216.398 23.1954 215.299 24.6273 214.009 25.5682C212.72 26.5091 211.318 27 209.801 27C208.588 27 207.374 26.7136 206.199 26.1818L206.642 24.6849C207.02 23.4052 208.391 22.8273 209.725 22.8273C211.204 22.8273 212.417 22.0091 213.365 20.3727L213.744 19.7182L204 0H208.853L216.095 15.5045L223.564 0H228Z" fill="#28334A"/>
<path d="M259 26C256.576 26 254.61 24.0381 254.605 21.6144L254.576 8.77399L246.492 23.0217H244.432L236.347 8.97523V21.6525C236.347 24.0536 234.401 26 232 26V0H235.775L245.538 17.1858L255.186 0H258.924L259 26Z" fill="#28334A"/>
<path d="M3.30499 46.6115C2.67082 46.6115 2.1017 46.472 1.59761 46.1929C1.10166 45.9138 0.711406 45.5239 0.426844 45.0233C0.142281 44.5144 0 43.9439 0 43.3119C0 42.6799 0.142281 42.1135 0.426844 41.6129C0.711406 41.1122 1.10166 40.7223 1.59761 40.4432C2.1017 40.1642 2.67082 40.0246 3.30499 40.0246C3.85785 40.0246 4.34974 40.1354 4.78065 40.357C5.21969 40.5705 5.56523 40.8865 5.81727 41.3051L5.17091 41.7483C4.95952 41.4282 4.69121 41.1902 4.366 41.0342C4.04079 40.87 3.68712 40.788 3.30499 40.788C2.84156 40.788 2.42285 40.8947 2.04885 41.1081C1.68298 41.3133 1.39436 41.6088 1.18297 41.9945C0.979708 42.3803 0.878078 42.8194 0.878078 43.3119C0.878078 43.8126 0.979708 44.2558 1.18297 44.6416C1.39436 45.0192 1.68298 45.3146 2.04885 45.528C2.42285 45.7332 2.84156 45.8358 3.30499 45.8358C3.68712 45.8358 4.04079 45.7579 4.366 45.6019C4.69121 45.446 4.95952 45.2079 5.17091 44.8878L5.81727 45.3311C5.56523 45.7497 5.21969 46.0698 4.78065 46.2914C4.34161 46.5048 3.84972 46.6115 3.30499 46.6115Z" fill="#28334A"/>
<path d="M11.7405 46.6115C11.1226 46.6115 10.5656 46.472 10.0697 46.1929C9.57374 45.9056 9.18349 45.5116 8.89892 45.0109C8.61436 44.5103 8.47208 43.9439 8.47208 43.3119C8.47208 42.6799 8.61436 42.1135 8.89892 41.6129C9.18349 41.1122 9.57374 40.7223 10.0697 40.4432C10.5656 40.1642 11.1226 40.0246 11.7405 40.0246C12.3584 40.0246 12.9153 40.1642 13.4113 40.4432C13.9072 40.7223 14.2934 41.1122 14.5698 41.6129C14.8544 42.1135 14.9967 42.6799 14.9967 43.3119C14.9967 43.9439 14.8544 44.5103 14.5698 45.0109C14.2934 45.5116 13.9072 45.9056 13.4113 46.1929C12.9153 46.472 12.3584 46.6115 11.7405 46.6115ZM11.7405 45.8358C12.1958 45.8358 12.6023 45.7332 12.96 45.528C13.3259 45.3146 13.6105 45.015 13.8137 44.6293C14.017 44.2435 14.1186 43.8044 14.1186 43.3119C14.1186 42.8194 14.017 42.3803 13.8137 41.9945C13.6105 41.6088 13.3259 41.3133 12.96 41.1081C12.6023 40.8947 12.1958 40.788 11.7405 40.788C11.2852 40.788 10.8746 40.8947 10.5087 41.1081C10.151 41.3133 9.86644 41.6088 9.65505 41.9945C9.45179 42.3803 9.35016 42.8194 9.35016 43.3119C9.35016 43.8044 9.45179 44.2435 9.65505 44.6293C9.86644 45.015 10.151 45.3146 10.5087 45.528C10.8746 45.7332 11.2852 45.8358 11.7405 45.8358Z" fill="#28334A"/>
<path d="M21.6291 43.1765C22.0844 43.2832 22.434 43.4679 22.6779 43.7305C22.9299 43.9932 23.0559 44.3133 23.0559 44.6908C23.0559 45.0684 22.9258 45.4049 22.6657 45.7004C22.4136 45.9959 22.0681 46.2257 21.6291 46.3899C21.19 46.5458 20.7063 46.6238 20.1778 46.6238C19.7144 46.6238 19.2591 46.5581 18.8119 46.4268C18.3647 46.2873 17.9745 46.0862 17.6411 45.8235L17.9338 45.171C18.2265 45.3926 18.568 45.565 18.9582 45.6881C19.3485 45.8112 19.7428 45.8728 20.1412 45.8728C20.7347 45.8728 21.2185 45.762 21.5925 45.5404C21.9746 45.3105 22.1657 45.0027 22.1657 44.617C22.1657 44.2722 22.0112 44.0055 21.7022 43.8167C21.3933 43.6197 20.9705 43.5212 20.4339 43.5212H19.3363V42.881H20.3851C20.8648 42.881 21.251 42.7907 21.5437 42.6101C21.8364 42.4213 21.9827 42.171 21.9827 41.8591C21.9827 41.5144 21.8161 41.2435 21.4827 41.0465C21.1575 40.8495 20.7307 40.751 20.2022 40.751C19.5111 40.751 18.8281 40.9275 18.1533 41.2804L17.9094 40.6033C18.6737 40.2011 19.4664 40 20.2875 40C20.7754 40 21.2144 40.0739 21.6047 40.2216C22.0031 40.3611 22.312 40.5622 22.5315 40.8249C22.7592 41.0876 22.873 41.3912 22.873 41.736C22.873 42.0643 22.7592 42.3557 22.5315 42.6101C22.312 42.8646 22.0112 43.0534 21.6291 43.1765Z" fill="#28334A"/>
<path d="M32.656 40.0739V45.762C32.656 46.8618 32.3877 47.6744 31.8511 48.1997C31.3226 48.7332 30.5218 49 29.4486 49C28.8551 49 28.29 48.9097 27.7534 48.7291C27.2249 48.5568 26.794 48.3146 26.4607 48.0027L26.8997 47.3379C27.2087 47.617 27.5827 47.8345 28.0217 47.9904C28.4689 48.1464 28.9364 48.2244 29.4242 48.2244C30.2372 48.2244 30.8348 48.0315 31.2169 47.6457C31.5991 47.2681 31.7901 46.6772 31.7901 45.8728V45.0479C31.5218 45.4583 31.1682 45.7702 30.7291 45.9836C30.2982 46.197 29.8185 46.3037 29.29 46.3037C28.6884 46.3037 28.1396 46.1724 27.6436 45.9097C27.1558 45.6389 26.7696 45.2654 26.4851 44.7893C26.2086 44.3051 26.0704 43.7592 26.0704 43.1518C26.0704 42.5445 26.2086 42.0027 26.4851 41.5267C26.7696 41.0506 27.1558 40.6813 27.6436 40.4186C28.1315 40.156 28.6803 40.0246 29.29 40.0246C29.8348 40.0246 30.3267 40.1354 30.7657 40.357C31.2047 40.5787 31.5584 40.8988 31.8267 41.3174V40.0739H32.656ZM29.3754 45.528C29.8388 45.528 30.2576 45.4295 30.6315 45.2326C31.0055 45.0274 31.2942 44.7442 31.4974 44.383C31.7088 44.0219 31.8145 43.6115 31.8145 43.1518C31.8145 42.6922 31.7088 42.2859 31.4974 41.933C31.2942 41.5718 31.0055 41.2927 30.6315 41.0958C30.2657 40.8906 29.847 40.788 29.3754 40.788C28.912 40.788 28.4933 40.8865 28.1193 41.0834C27.7534 41.2804 27.4648 41.5595 27.2534 41.9207C27.0501 42.2818 26.9485 42.6922 26.9485 43.1518C26.9485 43.6115 27.0501 44.0219 27.2534 44.383C27.4648 44.7442 27.7534 45.0274 28.1193 45.2326C28.4933 45.4295 28.912 45.528 29.3754 45.528Z" fill="#28334A"/>
<path d="M42.6622 40.0739V46.5499H41.8329V45.2695C41.5727 45.7045 41.2271 46.0369 40.7962 46.2668C40.3735 46.4966 39.8938 46.6115 39.3572 46.6115C38.7555 46.6115 38.2108 46.472 37.723 46.1929C37.2351 45.9138 36.853 45.5239 36.5766 45.0233C36.3002 44.5226 36.1619 43.9521 36.1619 43.3119C36.1619 42.6717 36.3002 42.1012 36.5766 41.6005C36.853 41.0999 37.2351 40.7141 37.723 40.4432C38.2108 40.1642 38.7555 40.0246 39.3572 40.0246C39.8775 40.0246 40.345 40.1354 40.7597 40.357C41.1824 40.5705 41.528 40.8865 41.7963 41.3051V40.0739H42.6622ZM39.4303 45.8358C39.8775 45.8358 40.28 45.7332 40.6377 45.528C41.0036 45.3146 41.2881 45.015 41.4914 44.6293C41.7028 44.2435 41.8085 43.8044 41.8085 43.3119C41.8085 42.8194 41.7028 42.3803 41.4914 41.9945C41.2881 41.6088 41.0036 41.3133 40.6377 41.1081C40.28 40.8947 39.8775 40.788 39.4303 40.788C38.975 40.788 38.5645 40.8947 38.1986 41.1081C37.8409 41.3133 37.5563 41.6088 37.3449 41.9945C37.1416 42.3803 37.04 42.8194 37.04 43.3119C37.04 43.8044 37.1416 44.2435 37.3449 44.6293C37.5563 45.015 37.8409 45.3146 38.1986 45.528C38.5645 45.7332 38.975 45.8358 39.4303 45.8358Z" fill="#28334A"/>
<path d="M50.8909 43.2011C51.7608 43.4063 52.1958 43.9357 52.1958 44.7893C52.1958 45.3557 51.9885 45.7907 51.5738 46.0944C51.1592 46.3981 50.5413 46.5499 49.7201 46.5499H46.8054V40.0739H49.6348C50.3665 40.0739 50.9397 40.2175 51.3543 40.5048C51.769 40.7921 51.9763 41.2025 51.9763 41.736C51.9763 42.0889 51.8787 42.3926 51.6836 42.6471C51.4966 42.8933 51.2324 43.078 50.8909 43.2011ZM47.6469 42.9549H49.5738C50.0697 42.9549 50.4478 42.8605 50.708 42.6717C50.9763 42.4829 51.1104 42.2079 51.1104 41.8468C51.1104 41.4856 50.9763 41.2148 50.708 41.0342C50.4478 40.8536 50.0697 40.7633 49.5738 40.7633H47.6469V42.9549ZM49.6835 45.8605C50.2364 45.8605 50.6511 45.7702 50.9275 45.5896C51.2039 45.409 51.3421 45.1259 51.3421 44.7401C51.3421 44.3543 51.2161 44.0711 50.9641 43.8906C50.712 43.7018 50.3136 43.6074 49.7689 43.6074H47.6469V45.8605H49.6835Z" fill="#28334A"/>
<path d="M61.762 40.0739V46.5499H60.9327V45.2695C60.6725 45.7045 60.327 46.0369 59.8961 46.2668C59.4733 46.4966 58.9936 46.6115 58.457 46.6115C57.8553 46.6115 57.3106 46.472 56.8228 46.1929C56.335 45.9138 55.9528 45.5239 55.6764 45.0233C55.4 44.5226 55.2618 43.9521 55.2618 43.3119C55.2618 42.6717 55.4 42.1012 55.6764 41.6005C55.9528 41.0999 56.335 40.7141 56.8228 40.4432C57.3106 40.1642 57.8553 40.0246 58.457 40.0246C58.9773 40.0246 59.4448 40.1354 59.8595 40.357C60.2822 40.5705 60.6278 40.8865 60.8961 41.3051V40.0739H61.762ZM58.5302 45.8358C58.9773 45.8358 59.3798 45.7332 59.7375 45.528C60.1034 45.3146 60.3879 45.015 60.5912 44.6293C60.8026 44.2435 60.9083 43.8044 60.9083 43.3119C60.9083 42.8194 60.8026 42.3803 60.5912 41.9945C60.3879 41.6088 60.1034 41.3133 59.7375 41.1081C59.3798 40.8947 58.9773 40.788 58.5302 40.788C58.0749 40.788 57.6643 40.8947 57.2984 41.1081C56.9407 41.3133 56.6561 41.6088 56.4447 41.9945C56.2415 42.3803 56.1398 42.8194 56.1398 43.3119C56.1398 43.8044 56.2415 44.2435 56.4447 44.6293C56.6561 45.015 56.9407 45.3146 57.2984 45.528C57.6643 45.7332 58.0749 45.8358 58.5302 45.8358Z" fill="#28334A"/>
<path d="M70.8322 40.0739V46.5499H70.0395V44.4077H67.7833L66.2955 46.5499H65.3564L66.954 44.2845C66.4581 44.145 66.076 43.907 65.8076 43.5705C65.5393 43.2339 65.4052 42.8071 65.4052 42.29C65.4052 41.5677 65.6491 41.0178 66.1369 40.6402C66.6247 40.2627 67.2914 40.0739 68.137 40.0739H70.8322ZM66.2833 42.3146C66.2833 43.275 66.889 43.7551 68.1004 43.7551H70.0395V40.8495H68.1614C66.9093 40.8495 66.2833 41.3379 66.2833 42.3146Z" fill="#28334A"/>
<path d="M85.664 40.0739V46.5499H84.7981V40.8495H80.7736V46.5499H79.9077V40.0739H85.664Z" fill="#28334A"/>
<path d="M92.7841 40.0246C93.4101 40.0246 93.967 40.1642 94.4548 40.4432C94.9427 40.7223 95.3207 41.1122 95.589 41.6129C95.8655 42.1135 96.0037 42.684 96.0037 43.3242C96.0037 43.9644 95.8695 44.5349 95.6012 45.0356C95.3329 45.528 94.9589 45.9138 94.4792 46.1929C94.0077 46.472 93.467 46.6115 92.8572 46.6115C92.3206 46.6115 91.8409 46.5048 91.4182 46.2914C91.0035 46.0698 90.6661 45.7538 90.4059 45.3434V48.9384H89.54V43.3365C89.54 42.6881 89.6742 42.1135 89.9425 41.6129C90.2189 41.1122 90.6011 40.7223 91.0889 40.4432C91.5848 40.1642 92.1499 40.0246 92.7841 40.0246ZM92.7597 45.8482C93.215 45.8482 93.6256 45.7415 93.9914 45.528C94.3573 45.3146 94.6418 45.015 94.8451 44.6293C95.0484 44.2435 95.15 43.8085 95.15 43.3242C95.15 42.8399 95.0484 42.4049 94.8451 42.0192C94.6418 41.6334 94.3573 41.3338 93.9914 41.1204C93.6256 40.8988 93.215 40.788 92.7597 40.788C92.3044 40.788 91.8938 40.8947 91.5279 41.1081C91.1702 41.3215 90.8897 41.6211 90.6864 42.0068C90.4913 42.3844 90.3937 42.8194 90.3937 43.3119C90.3937 43.8044 90.4913 44.2435 90.6864 44.6293C90.8897 45.015 91.1702 45.3146 91.5279 45.528C91.8938 45.7415 92.3044 45.8482 92.7597 45.8482Z" fill="#28334A"/>
<path d="M102.226 46.6115C101.608 46.6115 101.051 46.472 100.555 46.1929C100.059 45.9056 99.6686 45.5116 99.384 45.0109C99.0995 44.5103 98.9572 43.9439 98.9572 43.3119C98.9572 42.6799 99.0995 42.1135 99.384 41.6129C99.6686 41.1122 100.059 40.7223 100.555 40.4432C101.051 40.1642 101.608 40.0246 102.226 40.0246C102.844 40.0246 103.4 40.1642 103.896 40.4432C104.392 40.7223 104.779 41.1122 105.055 41.6129C105.34 42.1135 105.482 42.6799 105.482 43.3119C105.482 43.9439 105.34 44.5103 105.055 45.0109C104.779 45.5116 104.392 45.9056 103.896 46.1929C103.4 46.472 102.844 46.6115 102.226 46.6115ZM102.226 45.8358C102.681 45.8358 103.087 45.7332 103.445 45.528C103.811 45.3146 104.096 45.015 104.299 44.6293C104.502 44.2435 104.604 43.8044 104.604 43.3119C104.604 42.8194 104.502 42.3803 104.299 41.9945C104.096 41.6088 103.811 41.3133 103.445 41.1081C103.087 40.8947 102.681 40.788 102.226 40.788C101.77 40.788 101.36 40.8947 100.994 41.1081C100.636 41.3133 100.352 41.6088 100.14 41.9945C99.9369 42.3803 99.8353 42.8194 99.8353 43.3119C99.8353 43.8044 99.9369 44.2435 100.14 44.6293C100.352 45.015 100.636 45.3146 100.994 45.528C101.36 45.7332 101.77 45.8358 102.226 45.8358Z" fill="#28334A"/>
<path d="M111.723 46.6115C111.089 46.6115 110.519 46.472 110.015 46.1929C109.519 45.9138 109.129 45.5239 108.845 45.0233C108.56 44.5144 108.418 43.9439 108.418 43.3119C108.418 42.6799 108.56 42.1135 108.845 41.6129C109.129 41.1122 109.519 40.7223 110.015 40.4432C110.519 40.1642 111.089 40.0246 111.723 40.0246C112.276 40.0246 112.768 40.1354 113.198 40.357C113.637 40.5705 113.983 40.8865 114.235 41.3051L113.589 41.7483C113.377 41.4282 113.109 41.1902 112.784 41.0342C112.459 40.87 112.105 40.788 111.723 40.788C111.259 40.788 110.841 40.8947 110.467 41.1081C110.101 41.3133 109.812 41.6088 109.601 41.9945C109.397 42.3803 109.296 42.8194 109.296 43.3119C109.296 43.8126 109.397 44.2558 109.601 44.6416C109.812 45.0192 110.101 45.3146 110.467 45.528C110.841 45.7332 111.259 45.8358 111.723 45.8358C112.105 45.8358 112.459 45.7579 112.784 45.6019C113.109 45.446 113.377 45.2079 113.589 44.8878L114.235 45.3311C113.983 45.7497 113.637 46.0698 113.198 46.2914C112.759 46.5048 112.268 46.6115 111.723 46.6115Z" fill="#28334A"/>
<path d="M125.619 40.0246C126.424 40.0246 127.054 40.2585 127.51 40.7264C127.973 41.1943 128.205 41.8837 128.205 42.7948V46.5499H127.339V42.881C127.339 42.2079 127.176 41.6949 126.851 41.342C126.534 40.9891 126.083 40.8126 125.497 40.8126C124.831 40.8126 124.306 41.0219 123.924 41.4405C123.542 41.8509 123.351 42.4213 123.351 43.1518V46.5499H122.485V42.881C122.485 42.2079 122.322 41.6949 121.997 41.342C121.68 40.9891 121.225 40.8126 120.631 40.8126C119.973 40.8126 119.448 41.0219 119.058 41.4405C118.676 41.8509 118.485 42.4213 118.485 43.1518V46.5499H117.619V40.0739H118.448V41.2558C118.676 40.8618 118.993 40.5581 119.4 40.3447C119.806 40.1313 120.274 40.0246 120.802 40.0246C121.339 40.0246 121.802 40.1395 122.192 40.3694C122.591 40.5992 122.887 40.9398 123.083 41.3912C123.318 40.9644 123.656 40.632 124.095 40.394C124.542 40.1477 125.05 40.0246 125.619 40.0246Z" fill="#28334A"/>
<path d="M135.128 40.0246C135.754 40.0246 136.311 40.1642 136.799 40.4432C137.287 40.7223 137.665 41.1122 137.933 41.6129C138.21 42.1135 138.348 42.684 138.348 43.3242C138.348 43.9644 138.214 44.5349 137.945 45.0356C137.677 45.528 137.303 45.9138 136.823 46.1929C136.352 46.472 135.811 46.6115 135.201 46.6115C134.665 46.6115 134.185 46.5048 133.762 46.2914C133.348 46.0698 133.01 45.7538 132.75 45.3434V48.9384H131.884V43.3365C131.884 42.6881 132.018 42.1135 132.287 41.6129C132.563 41.1122 132.945 40.7223 133.433 40.4432C133.929 40.1642 134.494 40.0246 135.128 40.0246ZM135.104 45.8482C135.559 45.8482 135.97 45.7415 136.336 45.528C136.702 45.3146 136.986 45.015 137.189 44.6293C137.393 44.2435 137.494 43.8085 137.494 43.3242C137.494 42.8399 137.393 42.4049 137.189 42.0192C136.986 41.6334 136.702 41.3338 136.336 41.1204C135.97 40.8988 135.559 40.788 135.104 40.788C134.649 40.788 134.238 40.8947 133.872 41.1081C133.514 41.3215 133.234 41.6211 133.031 42.0068C132.836 42.3844 132.738 42.8194 132.738 43.3119C132.738 43.8044 132.836 44.2435 133.031 44.6293C133.234 45.015 133.514 45.3146 133.872 45.528C134.238 45.7415 134.649 45.8482 135.104 45.8482Z" fill="#28334A"/>
<path d="M147.753 40.0739V46.5499H146.924V45.2695C146.663 45.7045 146.318 46.0369 145.887 46.2668C145.464 46.4966 144.984 46.6115 144.448 46.6115C143.846 46.6115 143.301 46.472 142.814 46.1929C142.326 45.9138 141.944 45.5239 141.667 45.0233C141.391 44.5226 141.253 43.9521 141.253 43.3119C141.253 42.6717 141.391 42.1012 141.667 41.6005C141.944 41.0999 142.326 40.7141 142.814 40.4432C143.301 40.1642 143.846 40.0246 144.448 40.0246C144.968 40.0246 145.436 40.1354 145.85 40.357C146.273 40.5705 146.619 40.8865 146.887 41.3051V40.0739H147.753ZM144.521 45.8358C144.968 45.8358 145.371 45.7332 145.728 45.528C146.094 45.3146 146.379 45.015 146.582 44.6293C146.793 44.2435 146.899 43.8044 146.899 43.3119C146.899 42.8194 146.793 42.3803 146.582 41.9945C146.379 41.6088 146.094 41.3133 145.728 41.1081C145.371 40.8947 144.968 40.788 144.521 40.788C144.066 40.788 143.655 40.8947 143.289 41.1081C142.932 41.3133 142.647 41.6088 142.436 41.9945C142.232 42.3803 142.131 42.8194 142.131 43.3119C142.131 43.8044 142.232 44.2435 142.436 44.6293C142.647 45.015 142.932 45.3146 143.289 45.528C143.655 45.7332 144.066 45.8358 144.521 45.8358Z" fill="#28334A"/>
<path d="M151.896 40.0739H152.762V42.9425H156.799V40.0739H157.665V46.5499H156.799V43.6936H152.762V46.5499H151.896V40.0739Z" fill="#28334A"/>
<path d="M164.516 46.6115C163.882 46.6115 163.313 46.472 162.809 46.1929C162.313 45.9138 161.922 45.5239 161.638 45.0233C161.353 44.5144 161.211 43.9439 161.211 43.3119C161.211 42.6799 161.353 42.1135 161.638 41.6129C161.922 41.1122 162.313 40.7223 162.809 40.4432C163.313 40.1642 163.882 40.0246 164.516 40.0246C165.069 40.0246 165.561 40.1354 165.992 40.357C166.431 40.5705 166.776 40.8865 167.028 41.3051L166.382 41.7483C166.171 41.4282 165.902 41.1902 165.577 41.0342C165.252 40.87 164.898 40.788 164.516 40.788C164.053 40.788 163.634 40.8947 163.26 41.1081C162.894 41.3133 162.605 41.6088 162.394 41.9945C162.191 42.3803 162.089 42.8194 162.089 43.3119C162.089 43.8126 162.191 44.2558 162.394 44.6416C162.605 45.0192 162.894 45.3146 163.26 45.528C163.634 45.7332 164.053 45.8358 164.516 45.8358C164.898 45.8358 165.252 45.7579 165.577 45.6019C165.902 45.446 166.171 45.2079 166.382 44.8878L167.028 45.3311C166.776 45.7497 166.431 46.0698 165.992 46.2914C165.553 46.5048 165.061 46.6115 164.516 46.6115Z" fill="#28334A"/>
<path d="M178.413 40.0246C179.217 40.0246 179.848 40.2585 180.303 40.7264C180.766 41.1943 180.998 41.8837 180.998 42.7948V46.5499H180.132V42.881C180.132 42.2079 179.97 41.6949 179.644 41.342C179.327 40.9891 178.876 40.8126 178.291 40.8126C177.624 40.8126 177.1 41.0219 176.717 41.4405C176.335 41.8509 176.144 42.4213 176.144 43.1518V46.5499H175.278V42.881C175.278 42.2079 175.116 41.6949 174.791 41.342C174.473 40.9891 174.018 40.8126 173.425 40.8126C172.766 40.8126 172.242 41.0219 171.851 41.4405C171.469 41.8509 171.278 42.4213 171.278 43.1518V46.5499H170.412V40.0739H171.242V41.2558C171.469 40.8618 171.786 40.5581 172.193 40.3447C172.599 40.1313 173.067 40.0246 173.595 40.0246C174.132 40.0246 174.595 40.1395 174.986 40.3694C175.384 40.5992 175.681 40.9398 175.876 41.3912C176.112 40.9644 176.449 40.632 176.888 40.394C177.335 40.1477 177.843 40.0246 178.413 40.0246Z" fill="#28334A"/>
<path d="M189.056 43.2011C189.926 43.4063 190.361 43.9357 190.361 44.7893C190.361 45.3557 190.153 45.7907 189.739 46.0944C189.324 46.3981 188.706 46.5499 187.885 46.5499H184.97V40.0739H187.8C188.531 40.0739 189.105 40.2175 189.519 40.5048C189.934 40.7921 190.141 41.2025 190.141 41.736C190.141 42.0889 190.044 42.3926 189.848 42.6471C189.661 42.8933 189.397 43.078 189.056 43.2011ZM185.812 42.9549H187.739C188.235 42.9549 188.613 42.8605 188.873 42.6717C189.141 42.4829 189.275 42.2079 189.275 41.8468C189.275 41.4856 189.141 41.2148 188.873 41.0342C188.613 40.8536 188.235 40.7633 187.739 40.7633H185.812V42.9549ZM187.848 45.8605C188.401 45.8605 188.816 45.7702 189.092 45.5896C189.369 45.409 189.507 45.1259 189.507 44.7401C189.507 44.3543 189.381 44.0711 189.129 43.8906C188.877 43.7018 188.479 43.6074 187.934 43.6074H185.812V45.8605H187.848Z" fill="#28334A"/>
<path d="M196.744 46.6115C196.126 46.6115 195.569 46.472 195.073 46.1929C194.577 45.9056 194.187 45.5116 193.902 45.0109C193.618 44.5103 193.475 43.9439 193.475 43.3119C193.475 42.6799 193.618 42.1135 193.902 41.6129C194.187 41.1122 194.577 40.7223 195.073 40.4432C195.569 40.1642 196.126 40.0246 196.744 40.0246C197.362 40.0246 197.919 40.1642 198.415 40.4432C198.911 40.7223 199.297 41.1122 199.573 41.6129C199.858 42.1135 200 42.6799 200 43.3119C200 43.9439 199.858 44.5103 199.573 45.0109C199.297 45.5116 198.911 45.9056 198.415 46.1929C197.919 46.472 197.362 46.6115 196.744 46.6115ZM196.744 45.8358C197.199 45.8358 197.606 45.7332 197.963 45.528C198.329 45.3146 198.614 45.015 198.817 44.6293C199.02 44.2435 199.122 43.8044 199.122 43.3119C199.122 42.8194 199.02 42.3803 198.817 41.9945C198.614 41.6088 198.329 41.3133 197.963 41.1081C197.606 40.8947 197.199 40.788 196.744 40.788C196.289 40.788 195.878 40.8947 195.512 41.1081C195.154 41.3133 194.87 41.6088 194.658 41.9945C194.455 42.3803 194.353 42.8194 194.353 43.3119C194.353 43.8044 194.455 44.2435 194.658 44.6293C194.87 45.015 195.154 45.3146 195.512 45.528C195.878 45.7332 196.289 45.8358 196.744 45.8358Z" fill="#28334A"/>
</svg>
