<svg width="59" height="64" viewBox="0 0 59 64" fill="none" xmlns="http://www.w3.org/2000/svg">
<path d="M31.9717 0L37.4841 11.0033C39.5053 15.0166 39.5053 19.7475 37.4841 23.7608L21.2882 56.2392C18.9258 60.9967 14.0959 64 8.81979 64H0L31.9717 0Z" fill="#28334A"/>
<path d="M58.7402 59.7376C58.8441 59.711 58.9221 59.711 59 59.6844C57.0256 61.8626 54.3238 63.4032 51.2064 63.8548C43.9583 64.9438 37.2039 59.7907 36.1387 52.3532C35.0996 45.0219 40.0096 38.1953 47.1277 37C44.4779 39.9219 43.0751 43.986 43.6985 48.236C44.7377 55.6735 51.4662 60.8266 58.7402 59.7376Z" fill="#B7B8B9"/>
<ellipse cx="54" cy="41.5" rx="4" ry="4.5" fill="#28334A"/>
</svg>
