<svg width="0" height="0" class="hidden">
    <symbol fill="none" xmlns="http://www.w3.org/2000/svg" viewBox="0 0 30 20" id="icon-burger">
        <rect fill="currentColor" width="30" height="2.22222"></rect>
        <rect fill="currentColor" y="8.88892" width="30" height="2.22222"></rect>
        <rect fill="currentColor" y="17.7778" width="30" height="2.22222"></rect>
    </symbol>

    <symbol fill="none" xmlns="http://www.w3.org/2000/svg" viewBox="0 0 19 19" id="icon-close">
        <path fill="currentColor" d="M0 18L18 0.000156211L19 1.00015L1 19L0 18Z"></path>
        <path fill="currentColor" d="M18 18.9998L0 0.999992L1 0L19 17.9999L18 18.9998Z"></path>
    </symbol>
    
    <symbol fill="none" xmlns="http://www.w3.org/2000/svg" viewBox="0 0 19 19" id="icon-arrow-here-up">
        <path fill="currentColor" d="M18,19V2L1,19l-0.7-0.7L17.6,1H0V0h18h1v1v18H18z"></path>
    </symbol>

    <symbol fill="none" xmlns="http://www.w3.org/2000/svg" viewBox="0 0 19 19" id="icon-arrow-here-down">
        <path fill="currentColor" d="M19 0.000732422L19 18.0007V19.0007H18L0 19.0007V18.0007L17.5634 18.0007L0.293352 0.708298L1 0.000732422L18 17.0228L18 0.000732422L19 0.000732422Z"></path>
    </symbol>

    <symbol xmlns="http://www.w3.org/2000/svg" viewBox="0 0 25 25" id="icon-arrow-left">
        <path fill="currentColor" d="M0.9,12.3l-0.2,0.2l0.2,0.2l11.5,11.5l0.2,0.2l0.2-0.2l0.7-0.7l0.2-0.2l-0.2-0.2l-9.8-9.9h20.5h0.2V13l0-1v-0.2
    h-0.2H3.7l9.8-9.8l0.2-0.2l-0.2-0.2l-0.7-0.7l-0.2-0.2l-0.2,0.2L1.8,11.4l0,0l-0.2,0.2L0.9,12.3z"></path>
    </symbol>

    <symbol fill="none" xmlns="http://www.w3.org/2000/svg" viewBox="0 0 25 25" id="icon-arrow-right">
        <path fill="currentColor" d="M24.1769 12.677L24.3532 12.5004L24.1769 12.3238L12.6964 0.823376L12.5194 0.646141L12.3425 0.823376L11.625 1.54215L11.4487 1.71877L11.625 1.8954L21.4699 11.7573H1H0.75L0.75 12.0073L0.750001 13.0238L0.750001 13.2738H1L21.4378 13.2738L11.6239 23.1046L11.4476 23.2812L11.6239 23.4579L12.3415 24.1766L12.5184 24.3539L12.6953 24.1766L23.2815 13.5722L23.2824 13.5731L23.4594 13.3958L24.1769 12.677Z"></path>
    </symbol>

    <symbol fill="none" xmlns="http://www.w3.org/2000/svg" viewBox="0 0 18 18" id="icon-whatsapp" >
        <path fill="currentColor" d="M9,0c2.4,0,4.6,0.9,6.3,2.6C17.1,4.3,18,6.5,18,8.9c0,4.9-4,8.9-9,8.9h0c-1.5,0-3-0.4-4.3-1.1L0,18l1.3-4.6
        C0.5,12,0.1,10.5,0.1,8.9C0.1,4,4.1,0,9,0z M9,16.3L9,16.3c4.1,0,7.5-3.3,7.5-7.4c0-2-0.8-3.8-2.2-5.2C12.9,2.3,11,1.5,9,1.5
        c-4.1,0-7.5,3.3-7.5,7.4c0,1.4,0.4,2.8,1.1,3.9l0.2,0.3l-0.8,2.7L5,15.1l0.3,0.2C6.4,16,7.7,16.3,9,16.3z M11.6,10.1
        c0.2,0.1,1.3,0.6,1.5,0.7c0,0,0.1,0,0.1,0.1c0.2,0.1,0.3,0.1,0.3,0.2c0.1,0.1,0.1,0.5-0.1,1.1c-0.2,0.5-1.1,1-1.5,1.1
        c-0.4,0.1-0.9,0.1-1.4-0.1c-0.3-0.1-0.7-0.2-1.3-0.5c-2.1-0.9-3.5-2.9-3.8-3.3c0,0,0,0,0-0.1l0,0C5.3,9.1,4.5,8,4.5,6.9
        c0-1,0.5-1.6,0.7-1.8c0,0,0,0,0,0c0.2-0.2,0.4-0.3,0.6-0.3s0.3,0,0.4,0c0,0,0,0,0.1,0c0.1,0,0.3,0,0.5,0.4C6.9,5.3,7,5.6,7,5.8
        c0.2,0.5,0.4,1,0.4,1.1c0.1,0.1,0.1,0.2,0,0.4c0,0,0,0,0,0.1C7.4,7.4,7.4,7.5,7.3,7.6c0,0-0.1,0.1-0.1,0.1C7.1,7.8,7,7.9,6.9,8
        C6.8,8.1,6.7,8.2,6.8,8.5C7,8.7,7.4,9.4,8.1,10c0.7,0.6,1.3,0.9,1.7,1c0.1,0,0.1,0,0.1,0.1c0.2,0.1,0.4,0.1,0.5-0.1
        c0.1-0.1,0.6-0.7,0.7-0.9C11.2,9.9,11.4,10,11.6,10.1z"></path>
    </symbol>

    <symbol fill="none" xmlns="http://www.w3.org/2000/svg" viewBox="0 0 17 17" id="icon-instagram">
        <path fill="currentColor" d="M12.1068 0H4.89321C2.19524 0 0 2.18646 0 4.87424V12.1258C0 14.8133 2.19497 17 4.89321 17H12.1068C14.805 17 17 14.8133 17 12.1258V4.87424C17 2.18673 14.805 0 12.1068 0ZM15.3806 12.1258C15.3806 13.9239 13.9119 15.3869 12.1068 15.3869H4.89321C3.08808 15.3869 1.61939 13.9239 1.61939 12.1258V4.87424C1.61939 3.07611 3.08808 1.61311 4.89321 1.61311H12.1068C13.9119 1.61311 15.3806 3.07611 15.3806 4.87424V12.1258ZM8.5135 4.09541C6.06689 4.09541 4.07602 6.05722 4.07602 8.46887C4.07602 10.8802 6.06662 12.842 8.5135 12.842C10.9601 12.842 12.951 10.8802 12.951 8.46887C12.951 6.05722 10.9601 4.09541 8.5135 4.09541ZM8.5135 11.232C6.95779 11.232 5.69235 9.99223 5.69235 8.46887C5.69235 6.94521 6.95779 5.70574 8.5135 5.70574C10.0689 5.70574 11.3346 6.94521 11.3346 8.46887C11.3346 9.9925 10.0692 11.232 8.5135 11.232ZM14.0745 3.91672C14.0745 4.49112 13.6071 4.95678 13.0304 4.95678C12.4538 4.95678 11.9863 4.49112 11.9863 3.91672C11.9863 3.34235 12.4538 2.8767 13.0304 2.8767C13.6071 2.8767 14.0745 3.34235 14.0745 3.91672Z"></path>
    </symbol>

    <symbol fill="none" xmlns="http://www.w3.org/2000/svg" viewBox="0 0 20 17" id="icon-telegram">
        <path fill="currentColor" d="M17.6728 0.866072C17.6728 0.866072 19.3842 0.198778 19.2416 1.81941C19.194 2.48675 18.7662 4.82237 18.4334 7.34866L17.2925 14.8322C17.2925 14.8322 17.1974 15.9286 16.3417 16.1192C15.486 16.3099 14.2025 15.4519 13.9648 15.2612C13.7746 15.1182 10.3994 12.9732 9.21095 11.9246C8.87817 11.6386 8.49785 11.0666 9.25846 10.3993L14.2501 5.63271C14.8205 5.06072 15.391 3.72606 13.014 5.3467L6.35866 9.87498C6.35866 9.87498 5.59801 10.3516 4.17188 9.92264L1.08187 8.96933C1.08187 8.96933 -0.0590653 8.25434 1.89002 7.53932C6.64389 5.299 12.4911 3.01104 17.6728 0.866072Z"></path>
    </symbol>

    <symbol fill="none" xmlns="http://www.w3.org/2000/svg" viewBox="0 0 17 10" id="icon-vk">
        <path fill="currentColor" d="M9.25915 10C3.45093 10 0.13804 6.24623 0 0H2.90945C3.00499 4.58459 5.14984 6.52652 6.84879 6.92692V0H9.58844V3.95393C11.2661 3.78377 13.0286 1.98197 13.6232 0H16.3628C15.9062 2.44243 13.9949 4.24423 12.6358 4.98498C13.9949 5.58557 16.1718 7.15715 17 10H13.9843C13.3366 8.0981 11.7227 6.62662 9.58844 6.42643V10H9.25915Z"></path>
    </symbol>

    <symbol fill="none" xmlns="http://www.w3.org/2000/svg" viewBox="0 0 32 32" id="icon-map-pin-solid">
        <path fill="currentColor" d="M 16 5 C 12.144531 5 9 8.144531 9 12 C 9 15.515625 11.617188 18.417969 15 18.90625 L 15 28 L 17 28 L 17 18.90625 C 20.382813 18.417969 23 15.515625 23 12 C 23 8.144531 19.855469 5 16 5 Z M 16 7 C 18.773438 7 21 9.226563 21 12 C 21 14.773438 18.773438 17 16 17 C 13.226563 17 11 14.773438 11 12 C 11 9.226563 13.226563 7 16 7 Z M 16 8 C 13.800781 8 12 9.800781 12 12 L 14 12 C 14 10.882813 14.882813 10 16 10 Z"></path>
    </symbol>

    <symbol fill="none" xmlns="http://www.w3.org/2000/svg" viewBox="0 0 30 41" id="icon-contract">
        <path fill="currentColor" d="M27.337 3.53448H20.7212V0.639362C20.7212 0.298759 20.43 0.000732422 20.0971 0.000732422H10.2358C9.90291 0.000732422 9.61165 0.298759 9.61165 0.639362V3.53448H2.62136C1.16505 3.53448 0 4.72659 0 6.21672V38.3185C0 39.8086 1.16505 41.0007 2.62136 41.0007H27.3786C28.8349 41.0007 30 39.8086 30 38.3185V6.21672C29.9584 4.72659 28.7933 3.53448 27.337 3.53448ZM10.2358 11.7941H20.0971C20.43 11.7941 20.7212 11.4961 20.7212 11.1555V8.38806H25.0902V35.9343H4.86824V8.43064H9.61165V11.1555C9.61165 11.5386 9.90291 11.7941 10.2358 11.7941ZM19.473 1.27799V7.74943V10.5168H10.8599V7.74943V4.13054V1.27799H19.473ZM28.7101 38.2759C28.7101 39.0423 28.086 39.6809 27.337 39.6809H2.62136C1.8724 39.6809 1.24827 39.0423 1.24827 38.2759V6.21672C1.24827 5.45037 1.8724 4.81174 2.62136 4.81174H9.61165V7.15338H4.24411C3.91123 7.15338 3.61997 7.45141 3.61997 7.79201V36.6155C3.61997 36.9561 3.91123 37.2541 4.24411 37.2541H25.7143C26.0472 37.2541 26.3384 36.9561 26.3384 36.6155V7.79201C26.3384 7.45141 26.0472 7.15338 25.7143 7.15338H20.7212V4.81174H27.337C28.086 4.81174 28.7101 5.45037 28.7101 6.21672V38.2759Z"></path>
        <path fill="currentColor" d="M6.4082 18.9895C6.4082 19.3301 6.69947 19.6281 7.03234 19.6281H23.0518C23.3846 19.6281 23.6759 19.3301 23.6759 18.9895C23.6759 18.6489 23.3846 18.3508 23.0518 18.3508H7.03234C6.69947 18.3508 6.4082 18.6489 6.4082 18.9895Z"></path>
        <path fill="currentColor" d="M23.0518 22.821H7.03234C6.69947 22.821 6.4082 23.1191 6.4082 23.4597C6.4082 23.8003 6.69947 24.0983 7.03234 24.0983H23.0518C23.3846 24.0983 23.6759 23.8003 23.6759 23.4597C23.6759 23.1191 23.3846 22.821 23.0518 22.821Z"></path>
        <path fill="currentColor" d="M23.0518 27.5042H7.03234C6.69947 27.5042 6.4082 27.8022 6.4082 28.1428C6.4082 28.4834 6.69947 28.7814 7.03234 28.7814H23.0518C23.3846 28.7814 23.6759 28.4834 23.6759 28.1428C23.6759 27.8022 23.3846 27.5042 23.0518 27.5042Z"></path>
    </symbol>

    <symbol fill="none" xmlns="http://www.w3.org/2000/svg" viewBox="0 0 44 31" id="icon-helmet">
        <path fill="currentColor" d="M36.9199 18.456C36.8911 17.9148 36.8497 17.3494 36.7887 16.7593C36.4225 13.225 35.3059 8.26325 32.0623 4.69241C29.2337 1.57905 25.2802 0.000732422 20.3095 0.000732422C17.8748 0.000732422 15.6294 0.504805 13.6862 1.22382C13.6048 1.23952 13.5297 1.27042 13.46 1.31037C9.71905 2.74412 7.14641 4.95016 6.59249 5.80137C2.3888 9.27472 0 14.276 0 19.6952C0 19.7552 0.00780173 19.8151 0.0229176 19.8731C0.0633893 20.0253 1.05811 23.6308 5.35201 25.5239C11.3452 28.166 18.9656 31.0007 27.1009 31.0007C28.7159 31.0007 30.3503 30.8895 31.9965 30.6422C42.6357 29.0472 44 26.6481 44 24.736C44.0005 24.3113 44.0005 23.024 36.9199 18.456ZM30.9637 5.63446C36.0266 11.2026 35.5887 20.7058 35.4054 22.9489L26.8834 25.027C26.977 23.0411 27.1106 18.3761 26.5904 14.129C25.9599 8.98749 24.3239 3.20587 17.7256 1.62898C18.5497 1.50201 19.4113 1.42735 20.3095 1.42735C24.8408 1.42735 28.4257 2.84256 30.9637 5.63446ZM13.9637 2.63665C20.7927 2.65805 24.1391 6.15327 25.1378 14.2979C25.6229 18.2596 25.5166 22.7154 25.4289 24.7635L22.7777 23.2994C22.9972 21.0762 23.5916 11.9206 19.0919 7.59321C16.2477 4.85838 13.2435 4.03855 10.881 4.14982C11.7514 3.6234 12.7886 3.09079 13.9637 2.63665ZM7.7491 6.7225C7.80079 6.6854 7.85004 6.64736 7.8949 6.60979C8.03923 6.49661 8.18161 6.38248 8.32985 6.27311C10.0004 5.21503 14.1856 4.8793 18.0655 8.60896C21.9332 12.3286 21.5402 20.5869 21.3383 22.9551C19.4249 22.8752 13.7808 22.5043 9.18024 20.8327C6.11658 19.72 3.73412 17.8135 2.09477 15.1709C3.02708 11.8835 4.97167 8.94802 7.7491 6.7225ZM31.7746 29.2322C22.216 30.6674 12.9539 27.3091 5.95518 24.2238C2.60433 22.7473 1.62179 20.0937 1.46381 19.5958C1.46868 18.7541 1.54329 17.9253 1.67055 17.1102C3.84578 19.9525 6.61443 21.4229 8.6702 22.1695C14.0573 24.1268 20.5835 24.3703 21.8006 24.3988L25.739 26.5744C25.7439 26.5773 25.7497 26.5777 25.7546 26.5806C25.8034 26.6063 25.855 26.6277 25.9097 26.6419C25.9194 26.6443 25.9292 26.6448 25.9389 26.6467C25.9755 26.6548 26.0121 26.6624 26.0506 26.6652C26.0667 26.6667 26.0828 26.6671 26.0984 26.6671H26.0988C26.0988 26.6671 26.0988 26.6671 26.0993 26.6671C26.0998 26.6671 26.1003 26.6671 26.1003 26.6671C26.1564 26.6671 26.2105 26.659 26.2627 26.6472C26.2671 26.6462 26.2719 26.6467 26.2763 26.6457L36.2626 24.2105C36.5566 24.1392 36.7746 23.8981 36.8112 23.6047C36.8214 23.5233 36.9799 22.199 36.9711 20.2093C40.4638 22.5285 42.4099 24.2328 42.5372 24.7364C42.5377 26.6486 38.9162 28.1613 31.7746 29.2322Z"></path>
    </symbol>

    <symbol fill="none" xmlns="http://www.w3.org/2000/svg" viewBox="0 0 34 43" id="icon-insurance">
        <path fill="currentColor" d="M33.9958 7.13503C33.9942 7.10862 33.9916 7.08273 33.988 7.05684C33.9838 7.03146 33.9791 7.00661 33.9728 6.98227C33.9665 6.95793 33.9592 6.93359 33.9503 6.91028C33.9414 6.88646 33.932 6.86316 33.9205 6.84037C33.9095 6.81811 33.898 6.79687 33.8849 6.77616C33.8718 6.75441 33.8577 6.7337 33.8426 6.7135C33.8274 6.69382 33.8117 6.67466 33.795 6.65653C33.7782 6.63841 33.761 6.6208 33.7426 6.60423C33.7238 6.58714 33.7045 6.57109 33.6835 6.55607C33.6637 6.54157 33.6438 6.52759 33.6223 6.51516C33.6004 6.5017 33.5779 6.48979 33.5549 6.47891C33.5318 6.46804 33.5088 6.4582 33.4848 6.44939C33.4607 6.44059 33.4366 6.43334 33.4115 6.42712C33.3859 6.42039 33.3598 6.41521 33.3331 6.41107C33.3195 6.409 33.3069 6.40434 33.2933 6.4033C27.0603 5.78602 22.1858 4.53125 17.1506 0.191616C16.8237 -0.0900982 16.3273 -0.0559198 16.0438 0.267223C16.0255 0.287937 16.0119 0.311241 15.9962 0.333508C10.9328 4.65865 6.70428 5.80984 0.706677 6.40279C0.305477 6.44266 0 6.77668 0 7.17594V25.3688C0 25.4376 0.00941512 25.506 0.0277228 25.5723C3.2096 37.1899 16.0422 42.7092 16.5868 42.9386C16.6851 42.98 16.7897 43.0007 16.8938 43.0007C16.9969 43.0007 17.101 42.9805 17.1977 42.9401C17.749 42.7113 30.7287 37.1925 33.9106 25.5728C33.9215 25.5319 33.9299 25.4905 33.9341 25.448L33.9958 24.8468C33.9984 24.8209 34 24.7945 34 24.768V7.17646C34 7.16144 33.9969 7.1485 33.9958 7.13503ZM32.3795 25.2253C29.6334 35.1159 18.8569 40.4684 16.8954 41.37C14.9511 40.4658 4.33108 35.1252 1.56871 25.2631V7.87453C7.25403 7.25155 11.6636 5.96157 16.661 1.80836C21.6135 5.87509 26.5953 7.23239 32.4302 7.87194V24.7277L32.3795 25.2253Z"></path>
        <path fill="currentColor" d="M22.2386 27.7674H12.2887C11.7611 27.7674 11.334 27.3439 11.334 26.8221V18.2584C11.334 17.736 11.6165 17.6289 12.1441 17.6289C12.6712 17.6289 12.6299 17.736 12.6299 18.2584V26.2845H21.8584V18.121C21.8584 17.5986 22.3028 17.6289 22.8299 17.6289C23.3569 17.6289 23.1934 17.5986 23.1934 18.121V26.8215C23.1934 27.3439 22.7656 27.7674 22.2386 27.7674Z"></path>
        <path fill="currentColor" d="M24.4147 20.8419C24.1951 20.8419 23.9755 20.7676 23.7948 20.6151L17.4863 14.2627L10.9978 20.5892C10.6 20.9314 9.99657 20.8898 9.65032 20.4966C9.30469 20.1028 9.34606 19.5054 9.74388 19.1626L16.6907 13.1786C17.0478 12.8724 17.5774 12.8692 17.9376 13.1736L25.0353 19.1783C25.4363 19.5174 25.4834 20.1141 25.141 20.5111C24.9526 20.7298 24.6846 20.8419 24.4147 20.8419Z"></path>
    </symbol>

    <symbol fill="none" xmlns="http://www.w3.org/2000/svg" viewBox="0 0 32 35" id="icon-key">
        <path fill="currentColor" d="M24.9701 5.14136C24.0685 4.54652 22.9735 4.31696 21.8879 4.49667C20.8023 4.67596 19.8566 5.24148 19.2244 6.08976C17.9192 7.84077 18.3714 10.2641 20.233 11.4919C20.952 11.9649 21.7774 12.1919 22.5953 12.1919C23.8961 12.1919 25.1772 11.6168 25.9782 10.5431C26.6103 9.69568 26.8535 8.66643 26.6633 7.64557C26.4727 6.62554 25.8717 5.73578 24.9701 5.14136ZM24.8832 9.82177C24.0016 11.0039 22.259 11.2913 20.9992 10.4627C19.7416 9.63326 19.436 7.99493 20.319 6.81111C20.7462 6.23763 21.3859 5.85517 22.1191 5.73411C22.2821 5.7073 22.4452 5.69389 22.6078 5.69389C23.1753 5.69389 23.7286 5.85685 24.203 6.16977C24.812 6.57108 25.2178 7.17262 25.3465 7.86298C25.4753 8.55333 25.3109 9.24913 24.8832 9.82177Z"></path>
        <path fill="currentColor" d="M27.6505 1.54585C25.6704 0.240551 23.2671 -0.262552 20.8879 0.131636C18.5068 0.524986 16.4314 1.76662 15.0438 3.6278C12.7728 6.67281 12.8743 10.7236 15.238 13.6538L9.76898 20.9876L6.21681 18.6455C6.07159 18.5496 5.89117 18.5119 5.71744 18.5412C5.54237 18.5701 5.38735 18.6631 5.28578 18.7996L3.73956 20.8766C3.52797 21.1606 3.60102 21.5523 3.90305 21.7512L7.45343 24.0933L6.65248 25.167L3.10165 22.8249C2.80052 22.6263 2.38356 22.6942 2.17107 22.9786L0.621285 25.0555C0.519273 25.1921 0.479626 25.3609 0.509918 25.5251C0.540656 25.6893 0.63955 25.8355 0.784327 25.9311L4.33649 28.2715L2.48334 30.7598C2.01026 31.3931 1.8196 32.1895 1.95992 32.9448C2.08599 33.6204 2.46552 34.1969 3.02815 34.568C3.46204 34.8537 3.9721 35.0007 4.50933 35.0007C4.73207 35.0007 4.95925 34.9756 5.18733 34.9241C5.91835 34.7603 6.58521 34.3334 7.01732 33.7537L19.7751 16.6465C23.5068 17.7377 27.5904 16.4462 29.8627 13.4004C32.7275 9.55822 31.735 4.24024 27.6505 1.54585ZM28.7691 12.6778C26.7435 15.3935 23.0283 16.4747 19.7323 15.3031C19.5653 15.2436 19.38 15.2499 19.2174 15.3202C19.0561 15.3898 18.9309 15.5167 18.8699 15.6729L5.92414 33.0315C5.67646 33.3637 5.29558 33.6075 4.87863 33.7013C4.47726 33.7909 4.09193 33.7335 3.79525 33.5379C3.52529 33.3599 3.34087 33.0721 3.27672 32.7273C3.19654 32.298 3.30612 31.8443 3.57786 31.4807L5.81455 28.4771C6.0266 28.1931 5.95309 27.8015 5.65107 27.6021L2.09935 25.2616L2.88115 24.214L6.43197 26.5561C6.57675 26.6516 6.75627 26.6889 6.9309 26.6608C7.10597 26.6319 7.26099 26.5389 7.363 26.4027L8.93105 24.3003C9.14354 24.0162 9.07004 23.6242 8.76801 23.4252L5.21718 21.0831L5.9972 20.0358L9.54891 22.3775C9.85183 22.5773 10.2675 22.5082 10.4799 22.2238L16.5285 14.113L16.5356 14.1067C16.8034 13.8779 16.8288 13.4909 16.5935 13.2328C14.3012 10.7169 14.1145 7.06407 16.1387 4.34915C17.321 2.76277 19.0904 1.70462 21.1195 1.3695C23.1486 1.03479 25.1955 1.46249 26.8834 2.5751C30.3648 4.87153 31.2103 9.40364 28.7691 12.6778Z"></path>
    </symbol>
    
    <symbol fill="none" xmlns="http://www.w3.org/2000/svg" viewBox="0 0 28 37" id="icon-worker">
        <path fill="currentColor" d="M20.6943 24.0181C20.4876 23.9075 20.1555 23.73 20.0766 23.6974C18.2375 22.8014 16.1756 22.2983 13.9996 22.2983C6.27573 22.2983 -0.00680458 28.6294 5.53128e-06 36.4087C0.000406126 36.7379 0.274013 37.0009 0.600898 37.0009H27.3991C27.726 37.0009 27.9996 36.7379 28 36.4087C28.004 31.07 25.0464 26.4147 20.6943 24.0181ZM7.81441 30.143H19.4317V35.7907H7.81441V30.143ZM19.4317 24.7938V28.9328H7.81441V25.1004C7.81441 25.0831 7.81081 25.0669 7.8092 25.05C9.61429 24.0681 11.6778 23.5086 13.8694 23.5086C15.8624 23.5086 17.7488 23.9725 19.4317 24.7938ZM6.61263 25.7898V35.7907H1.08562C1.2771 31.6465 3.42349 28.0098 6.61263 25.7898ZM20.6335 35.7907V25.4635C24.0938 27.6423 26.4529 31.4363 26.6536 35.7907H20.6335Z"></path>
        <path fill="currentColor" d="M5.5392 13.1998H5.72988C6.02912 17.4053 9.5123 20.737 13.7622 20.737C18.0137 20.737 21.4985 17.4053 21.7981 13.1998H21.9888C22.8109 13.1998 23.4546 12.3764 23.4546 11.3251C23.4546 10.5296 23.0853 9.86643 22.5497 9.5901C22.3077 5.84649 19.7655 2.66765 16.1654 1.64461C15.7792 0.682489 14.8434 0.000732422 13.7514 0.000732422C12.6562 0.000732422 11.7184 0.686523 11.3342 1.65308C7.74968 2.6854 5.22032 5.85698 4.97916 9.5901C4.44357 9.86643 4.07422 10.53 4.07422 11.3251C4.07342 12.3764 4.71758 13.1998 5.5392 13.1998ZM13.7622 19.5268C10.1753 19.5268 7.2277 16.7376 6.93166 13.1998H20.596C20.3003 16.7376 17.3511 19.5268 13.7622 19.5268ZM21.9912 11.9896H5.53679C5.4755 11.9803 5.2724 11.754 5.2724 11.3247C5.2724 11.0524 5.35372 10.8713 5.42943 10.7664C5.46909 10.7749 5.50995 10.7793 5.55242 10.7793H21.9756C22.0177 10.7793 22.0589 10.7749 22.0982 10.7664C22.1739 10.8717 22.2552 11.0524 22.2552 11.3247C22.2552 11.754 22.0521 11.9799 21.9912 11.9896ZM21.2189 9.56912H16.2251V2.97303C19.028 3.98961 20.9861 6.56052 21.2189 9.56912ZM15.0233 2.65474V9.56912H12.2191V2.62247C12.2191 1.69544 13.1116 0.974151 14.0759 1.28316C14.6547 1.46873 15.0233 2.04318 15.0233 2.65474ZM11.0173 2.98311V9.56912H6.04995C6.2819 6.5702 8.22879 4.00655 11.0173 2.98311Z"></path>
    </symbol>

    <symbol fill="none" xmlns="http://www.w3.org/2000/svg" viewBox="0 0 31 40" id="icon-warranty">
        <path fill="currentColor" d="M30.3651 6.15145C30.3181 6.13523 30.269 6.12216 30.2175 6.11721C24.9165 5.58285 20.66 4.40016 15.828 0.1614C15.557 -0.0755886 15.147 -0.0472042 14.9114 0.225378C14.898 0.240697 14.8939 0.260521 14.8823 0.276741C10.0892 4.44972 5.85277 5.6234 0.585724 6.1537C0.573204 6.15505 0.562027 6.15911 0.549954 6.16091C0.529387 6.16406 0.509267 6.16812 0.489593 6.17307C0.467685 6.17893 0.44667 6.18524 0.425656 6.1929C0.40643 6.20011 0.388098 6.20777 0.369766 6.21678C0.350093 6.22624 0.330867 6.2366 0.312535 6.24832C0.295097 6.25913 0.278554 6.27039 0.262458 6.28256C0.245467 6.29517 0.229818 6.30869 0.214169 6.32266C0.19852 6.33707 0.183765 6.35194 0.169457 6.36816C0.156491 6.38303 0.143972 6.3979 0.1319 6.41367C0.118486 6.43169 0.105967 6.45061 0.0943416 6.46999C0.084505 6.48621 0.07601 6.50242 0.0675148 6.51955C0.0572311 6.54072 0.0482885 6.5619 0.0406875 6.58397C0.0344279 6.602 0.0286155 6.62002 0.0241443 6.63849C0.0183318 6.66147 0.0134132 6.68445 0.0098363 6.70833C0.00715359 6.7277 0.00491821 6.74707 0.00402398 6.7669C0.00312974 6.77996 0 6.79213 0 6.80519V23.6359C0 23.694 0.00760084 23.7512 0.0228028 23.8071C2.92862 34.6045 14.6511 39.7358 15.1488 39.9485C15.2302 39.9832 15.3165 40.0007 15.4028 40.0007C15.4882 40.0007 15.574 39.9836 15.6545 39.9498C16.1575 39.7363 28.015 34.6059 30.9204 23.8071C30.9298 23.7729 30.9361 23.7382 30.9396 23.7026L30.9964 23.1421C30.9987 23.12 31 23.0975 31 23.0759V6.80474C31 6.44836 30.717 6.15956 30.3651 6.15145ZM29.6524 23.5161C27.1186 32.8181 17.1286 37.8259 15.4041 38.6284C13.6948 37.825 3.85058 32.8384 1.29932 23.548V7.39181C6.43894 6.81916 10.6785 5.55762 15.4229 1.52791C20.2111 5.5788 24.4877 6.81511 29.7007 7.37739V23.0421L29.6524 23.5161Z"></path>
        <path fill="currentColor" d="M11.2714 23.4877H12.4729L12.4658 27.7119L12.4658 27.7119C12.4656 27.9265 12.6306 28.112 12.8484 28.1125H12.8487C13.0658 28.1125 13.232 27.9279 13.2322 27.7134C13.2322 27.7134 13.2322 27.7134 13.2322 27.7133L13.2393 23.4877H18.1856C18.4034 23.4877 18.5688 23.3023 18.5688 23.0879C18.5688 22.8735 18.4034 22.688 18.1856 22.688H13.2409L13.2442 20.7889H17.9127C20.2343 20.7889 22.1118 18.7864 22.1118 16.3389C22.1118 13.8915 20.2343 11.889 17.9127 11.889H11.2716C11.0537 11.889 10.8884 12.0742 10.8884 12.2888C10.8884 12.5034 11.0537 12.6887 11.2716 12.6887H12.4911L12.4788 19.9892H11.276C11.058 19.9892 10.8927 20.1747 10.8927 20.3891C10.8927 20.6034 11.058 20.7889 11.276 20.7889H12.4776L12.4743 22.688H11.2714C11.0535 22.688 10.8882 22.8735 10.8882 23.0879C10.8882 23.3022 11.0535 23.4877 11.2714 23.4877ZM13.2454 19.9892L13.2576 12.6887H17.9127C19.7991 12.6887 21.3454 14.3201 21.3454 16.3391C21.3454 18.358 19.7992 19.9892 17.9127 19.9892H13.2454Z" stroke="currentColor" stroke-width="0.223559"></path>
    </symbol>

    <symbol fill="none" xmlns="http://www.w3.org/2000/svg" viewBox="0 0 64 64" id="icon-play">
        <path fill="white" d="M64 32C64 49.6731 49.6731 64 32 64C14.3269 64 0 49.6731 0 32C0 14.3269 14.3269 0 32 0C49.6731 0 64 14.3269 64 32Z"></path>
        <path fill="currentColor" d="M39 28.5359C41.6667 30.0755 43 30.8453 43 32C43 33.1547 41.6667 33.9245 39 35.4641L31.5 39.7942C28.8333 41.3338 27.5 42.1036 26.5 41.5263C25.5 40.9489 25.5 39.4093 25.5 36.3301V27.6699C25.5 24.5907 25.5 23.0511 26.5 22.4737C27.5 21.8964 28.8333 22.6662 31.5 24.2058L39 28.5359Z"></path>
    </symbol>
</svg>