<svg width="125" height="125" viewBox="0 0 125 125" fill="none" xmlns="http://www.w3.org/2000/svg">
<path d="M5.60241 64.4224C5.36779 64.8782 5.00984 65.2588 4.56951 65.5206C4.10856 65.7963 3.58216 65.9431 3.04536 65.9454C2.50515 65.9672 1.96913 65.8434 1.4932 65.587C1.04399 65.3437 0.669971 64.9818 0.411657 64.5407C0.146526 64.0712 0.0058351 63.5415 0.00298197 63.002C-0.017767 62.5363 0.0699867 62.0721 0.259312 61.646C0.442624 61.2524 0.734314 60.9193 1.10009 60.6859L1.51328 61.2626C1.23796 61.4512 1.01962 61.7119 0.88209 62.0161C0.745748 62.3195 0.679383 62.6497 0.687912 62.9822C0.692434 63.3811 0.799093 63.7721 0.997692 64.1178C1.19577 64.4456 1.48085 64.7119 1.82121 64.887C2.19222 65.0672 2.60173 65.1537 3.01396 65.1388C3.42931 65.1377 3.8375 65.03 4.19952 64.8259C4.53058 64.634 4.80148 64.3532 4.98158 64.0154C5.16711 63.6703 5.26072 63.2832 5.25339 62.8915C5.24939 62.5559 5.16881 62.2257 5.01781 61.9262C4.87028 61.6307 4.64554 61.3808 4.36744 61.203L4.73037 60.6298C5.1071 60.8441 5.41304 61.1639 5.61062 61.55C5.82233 61.965 5.93421 62.4239 5.93734 62.8901C5.95798 63.421 5.84269 63.9485 5.60241 64.4224Z" fill="#28334A"/>
<path d="M5.7092 59.0689C5.4265 59.4898 5.03424 59.8253 4.57491 60.0392C4.09396 60.2515 3.56583 60.3335 3.04359 60.2768C2.50879 60.2491 1.99083 60.0813 1.5415 59.7902C1.12498 59.5023 0.795339 59.1055 0.588344 58.643C0.377755 58.1631 0.295039 57.6366 0.348238 57.1147C0.379151 56.5819 0.54551 56.0655 0.831558 55.6147C1.11207 55.1943 1.50499 54.8613 1.96537 54.6537C2.44632 54.4413 2.97445 54.3594 3.49669 54.416C4.03796 54.4423 4.56169 54.6155 5.01178 54.917C5.43291 55.1987 5.76648 55.5932 5.97457 56.0555C6.18402 56.5358 6.26671 57.062 6.21469 57.5838C6.18526 58.1157 6.01039 58.6294 5.7092 59.0689ZM5.34101 56.4086C5.17921 56.0677 4.92179 55.7815 4.60012 55.5848C4.25363 55.3675 3.85796 55.2412 3.44959 55.2174C3.04659 55.1833 2.64127 55.2491 2.26943 55.409C1.92234 55.5571 1.62343 55.7994 1.40645 56.1084C1.19001 56.4307 1.06253 56.8045 1.03698 57.1917C0.996556 57.5768 1.0599 57.9655 1.22044 58.3175C1.38224 58.6583 1.63966 58.9446 1.96133 59.1413C2.30686 59.3657 2.70443 59.497 3.1157 59.5226C3.52072 59.5579 3.92824 59.4905 4.3007 59.3267C4.64681 59.1766 4.94422 58.9327 5.15935 58.6225C5.37709 58.3023 5.50608 57.9301 5.53315 57.544C5.5701 57.155 5.50381 56.7634 5.34101 56.4086Z" fill="#28334A"/>
<path d="M4.31991 49.5839C4.44851 49.5004 4.59198 49.4428 4.74205 49.4146C4.89211 49.3865 5.04579 49.3882 5.19422 49.4197C5.51026 49.4715 5.79211 49.6436 5.98098 49.9001C6.19703 50.1917 6.33412 50.5349 6.37925 50.8971C6.44141 51.3251 6.42838 51.7619 6.34075 52.188C6.26057 52.5828 6.12303 52.9646 5.93254 53.3213C5.75732 53.6652 5.51862 53.9735 5.22924 54.2299L4.7181 53.8588C4.9654 53.6303 5.17256 53.362 5.33064 53.0653C5.49943 52.7576 5.6206 52.4268 5.68994 52.0842C5.79429 51.6551 5.78024 51.2076 5.64927 50.7898C5.60826 50.632 5.52347 50.4898 5.40461 50.3792C5.28575 50.2686 5.13761 50.1942 4.97712 50.1645C4.83975 50.1362 4.69662 50.146 4.5632 50.193C4.42979 50.2399 4.31116 50.3222 4.2201 50.431C3.97019 50.7277 3.8078 51.0875 3.75151 51.469L3.56667 52.4093L3.02609 52.306L3.20825 51.4097C3.29218 51.068 3.27865 50.7112 3.16919 50.3801C3.13203 50.2545 3.06082 50.1422 2.9634 50.0554C2.86597 49.9686 2.74609 49.9107 2.61687 49.888C2.47555 49.8606 2.32874 49.8736 2.1931 49.9253C2.05746 49.977 1.93841 50.0654 1.84945 50.1805C1.60092 50.485 1.43861 50.8498 1.37979 51.2362C1.26276 51.8472 1.29431 52.4751 1.47178 53.0666L0.861503 53.1676C0.655319 52.4818 0.620721 51.7533 0.760706 51.0455C0.832963 50.6601 0.970291 50.2887 1.16678 49.9474C1.32905 49.6621 1.56245 49.423 1.84382 49.2538C2.09286 49.1053 2.38682 49.0538 2.66842 49.1094C2.94051 49.1591 3.18288 49.3082 3.3487 49.5277C3.53188 49.7812 3.64319 50.0801 3.67112 50.3934C3.8056 50.0679 4.03095 49.7867 4.31991 49.5839Z" fill="#28334A"/>
<path d="M3.40169 41.0723L8.17814 42.6525C8.55694 42.7445 8.91617 42.9116 9.23446 43.1437C9.55274 43.3759 9.82358 43.6683 10.0309 44.0037C10.3499 44.7262 10.3754 45.536 10.1018 46.256C9.96057 46.7385 9.74347 47.1928 9.45854 47.6021C9.2166 47.9684 8.89491 48.2733 8.51659 48.4948L8.06868 47.9408C8.39529 47.7463 8.67985 47.4898 8.90719 47.1849C9.152 46.8502 9.33511 46.473 9.44821 46.0702C9.65677 45.5394 9.64506 44.9396 9.41563 44.4016C9.26337 44.1591 9.06566 43.9477 8.83402 43.7798C8.60238 43.6119 8.34144 43.4909 8.06641 43.4237L7.36527 43.185C7.63708 43.5178 7.8173 43.9147 7.88704 44.3342C7.95835 44.7739 7.92611 45.2206 7.79295 45.6381C7.65887 46.1225 7.40283 46.5601 7.04901 46.9096C6.71696 47.2456 6.29338 47.4764 5.82752 47.5754C5.34015 47.6793 4.82901 47.6463 4.34928 47.48C3.8689 47.3273 3.43346 47.0493 3.0884 46.6749C2.76385 46.3096 2.54157 45.8657 2.44554 45.3911C2.347 44.89 2.37231 44.3767 2.51922 43.8967C2.64353 43.4668 2.86419 43.0744 3.16464 42.7488C3.4544 42.4428 3.82527 42.226 4.23665 42.122L3.18896 41.7778L3.40169 41.0723ZM7.22235 44.2107C7.15383 43.8502 6.98468 43.5132 6.73488 43.2396C6.47239 42.9582 6.14118 42.7511 5.77672 42.6405C5.41876 42.5126 5.03635 42.4841 4.67066 42.5579C4.32221 42.6362 4.00458 42.8083 3.75121 43.056C3.48416 43.3296 3.28931 43.6666 3.18329 44.0381C3.07177 44.4027 3.05073 44.7921 3.12194 45.1731C3.19409 45.53 3.36299 45.8631 3.60972 46.1353C3.87221 46.4167 4.20342 46.6238 4.56788 46.7344C4.92731 46.8616 5.31049 46.8917 5.67827 46.8218C6.03087 46.7482 6.35152 46.574 6.60234 46.3196C6.87017 46.0525 7.06386 45.7191 7.16532 45.3506C7.2801 44.985 7.29971 44.5929 7.22235 44.2107Z" fill="#28334A"/>
<path d="M7.08049 33.718L12.4886 36.2003L12.1697 36.9001L11.0983 36.4051C11.3551 36.7756 11.5067 37.2089 11.5369 37.6587C11.5607 38.124 11.4669 38.5876 11.2642 39.0068C11.0519 39.4932 10.7148 39.9146 10.2872 40.2282C9.87019 40.5285 9.37866 40.7081 8.8664 40.7473C8.31906 40.7854 7.77115 40.6802 7.27665 40.4419C6.7734 40.2224 6.33554 39.8761 6.00585 39.4366C5.70154 39.0237 5.5183 38.534 5.47676 38.0226C5.4424 37.4942 5.54283 36.9657 5.76859 36.487C5.95171 36.0672 6.23435 35.6986 6.59201 35.4131C6.93969 35.1447 7.35111 34.9714 7.78593 34.9103L6.75563 34.4411L7.08049 33.718ZM10.8438 37.4949C10.8074 37.1098 10.6633 36.7427 10.4281 36.4358C10.1717 36.1019 9.83572 35.8378 9.45103 35.6676C9.07109 35.4844 8.65101 35.4006 8.23005 35.424C7.84211 35.4498 7.46874 35.5817 7.15075 35.8056C6.8349 36.0382 6.58375 36.3479 6.42115 36.7053C6.25154 37.0663 6.17883 37.4655 6.21019 37.8633C6.24799 38.2481 6.39193 38.6148 6.62591 38.9225C6.8838 39.2579 7.22117 39.5236 7.60744 39.6956C7.98684 39.8752 8.405 39.9573 8.82397 39.9342C9.21329 39.9153 9.58851 39.7827 9.90327 39.5527C10.2249 39.3189 10.4786 39.0036 10.6383 38.6391C10.808 38.2865 10.8819 37.8952 10.8527 37.5048L10.8438 37.4949Z" fill="#28334A"/>
<path d="M14.0875 29.1319C14.2807 29.2281 14.442 29.3738 14.556 29.5552C14.6699 29.7366 14.7329 29.9478 14.7388 30.1685C14.716 30.7352 14.5168 31.2949 14.1687 31.7704L12.7453 33.9954L8.04902 31.2631L9.43523 29.1041C9.70288 28.6307 10.1035 28.2383 10.5838 27.9794C10.7778 27.8815 10.9904 27.8338 11.2003 27.8411C11.4102 27.8484 11.6101 27.9105 11.7803 28.0211C12.0227 28.1471 12.2088 28.354 12.3085 28.6085C12.3968 28.8768 12.4021 29.1711 12.3238 29.4553C12.541 29.1945 12.8427 29.0166 13.1692 28.9567C13.4958 28.8968 13.8235 28.9593 14.0875 29.1319ZM10.5361 31.822L11.4807 30.3534C11.6936 30.0592 11.8154 29.7142 11.8297 29.3649C11.8272 29.2265 11.7884 29.0941 11.7171 28.9805C11.6457 28.8669 11.5443 28.7761 11.4227 28.717C11.3125 28.6424 11.1823 28.5995 11.0449 28.5923C10.9075 28.5851 10.7678 28.614 10.6395 28.676C10.326 28.8561 10.0653 29.1194 9.88945 29.4334L8.94968 30.8977L10.5361 31.822ZM14.0474 30.4346C14.0478 30.2911 14.0097 30.153 13.9371 30.0345C13.8644 29.916 13.7598 29.8213 13.6339 29.76C13.5225 29.6782 13.3895 29.6278 13.2476 29.6136C13.1057 29.5994 12.9597 29.6218 12.8233 29.6788C12.4914 29.8632 12.2162 30.1397 12.0344 30.4712L11.0049 32.0895L12.6413 33.0499L13.6385 31.4933C13.8583 31.1803 13.9929 30.8204 14.028 30.4521L14.0474 30.4346Z" fill="#28334A"/>
<path d="M14.3899 21.7449L18.7106 25.1812L18.2726 25.7339L17.4229 25.0536C17.5724 25.4433 17.6144 25.865 17.5444 26.2741C17.4549 26.6976 17.2622 27.0912 16.9834 27.4198C16.6871 27.8076 16.2928 28.1086 15.8404 28.2923C15.4061 28.4731 14.9274 28.5236 14.462 28.4378C13.9599 28.3554 13.4864 28.1433 13.0883 27.8225C12.6842 27.5125 12.3653 27.1044 12.1622 26.6375C11.9768 26.2013 11.9163 25.7232 11.9873 25.2574C12.0545 24.7689 12.248 24.3081 12.5484 23.9203C12.8002 23.5923 13.128 23.331 13.504 23.1586C13.8707 22.9902 14.2773 22.9253 14.6804 22.9709L13.8641 22.3186L14.3899 21.7449ZM16.9631 25.9835C17.02 25.6276 16.9752 25.2617 16.834 24.9278C16.6714 24.5721 16.4251 24.2606 16.1164 24.0204C15.8132 23.7731 15.4537 23.6055 15.0711 23.533C14.721 23.4688 14.3612 23.5051 14.0331 23.6375C13.6971 23.7717 13.4048 23.995 13.1871 24.2838C12.9559 24.5654 12.8052 24.9051 12.7509 25.2673C12.6902 25.6249 12.7365 25.9937 12.8841 26.3275C13.0405 26.6843 13.2845 26.9965 13.5931 27.2344C13.8956 27.4829 14.2553 27.6506 14.6384 27.7218C14.9884 27.7884 15.3489 27.7521 15.6763 27.6173C16.0286 27.4833 16.3374 27.2566 16.5706 26.9608C16.7831 26.675 16.9182 26.3385 16.9631 25.9835Z" fill="#28334A"/>
<path d="M20.0495 16.6427L24.1341 20.7482L23.611 21.2198L22.2626 19.8628L21.008 21.1246L20.8477 21.2691L21.2683 23.5586L20.6812 24.1489L20.2534 21.7089C19.9054 21.9219 19.4962 22.0157 19.086 21.9765C18.6797 21.9206 18.3038 21.7214 18.026 21.4146C17.8169 21.2276 17.6549 20.9936 17.5538 20.7324C17.4527 20.4713 17.4155 20.1908 17.4453 19.9149C17.5521 19.2895 17.8648 18.7222 18.3338 18.3028L20.0495 16.6427ZM20.659 20.6892L21.8708 19.4746L20.0441 17.6331L18.8699 18.8137C18.0889 19.5963 18.0049 20.2999 18.6183 20.9155C19.2317 21.5312 19.9283 21.4613 20.6637 20.6849L20.659 20.6892Z" fill="#28334A"/>
<path d="M28.0706 10.1773L31.2051 14.6616L30.5567 15.1391L27.801 11.1859L24.7632 13.3811L27.5189 17.3343L26.8705 17.8118L23.7319 13.323L28.0706 10.1773Z" fill="#28334A"/>
<path d="M34.8569 7.05027C35.3474 7.04582 35.8213 7.18039 36.2234 7.43828C36.6538 7.71181 36.9992 8.09594 37.226 8.5531C37.4725 8.99633 37.5975 9.5013 37.5891 10.0201C37.5726 10.5002 37.4258 10.974 37.1645 11.3914C36.8804 11.8225 36.4888 12.1756 36.0309 12.4133C35.6427 12.6427 35.2092 12.7768 34.7682 12.804C34.3512 12.8262 33.9422 12.7356 33.5849 12.5416L35.0157 15.2641L34.3334 15.6466L32.1077 11.4061C31.8614 10.9545 31.7356 10.4426 31.7418 9.91667C31.7543 9.42815 31.9085 8.94584 32.1858 8.52787C32.4824 8.08157 32.8887 7.71533 33.363 7.46665C33.8236 7.2035 34.3383 7.06004 34.8569 7.05027ZM36.5084 11.1106C36.7123 10.7891 36.8228 10.4214 36.8272 10.0507C36.8315 9.65422 36.7375 9.26821 36.5533 8.92686C36.378 8.58076 36.1155 8.28892 35.7901 8.07813C35.4872 7.8765 35.128 7.7681 34.7546 7.76556C34.3727 7.76649 33.9923 7.86861 33.6523 8.06147C33.3091 8.24599 33.014 8.51201 32.7949 8.83445C32.5956 9.1542 32.4885 9.51867 32.4858 9.88563C32.4859 10.2826 32.583 10.6683 32.7686 11.0097C32.9522 11.355 33.2163 11.6487 33.5401 11.8676C33.8401 12.0648 34.1942 12.1714 34.5625 12.1753C34.9434 12.1716 35.3222 12.068 35.6607 11.8748C36.0029 11.6967 36.2957 11.4327 36.5084 11.1106Z" fill="#28334A"/>
<path d="M40.0763 10.5377C39.5668 10.4787 39.084 10.2799 38.6811 9.96325C38.2664 9.62514 37.948 9.18356 37.758 8.68276C37.5562 8.1855 37.4868 7.64389 37.5568 7.11086C37.6276 6.60749 37.837 6.13332 38.1617 5.74158C38.5019 5.3319 38.9419 5.01682 39.4389 4.82689C39.9325 4.62021 40.4711 4.54563 41.0014 4.61048C41.5042 4.67374 41.9781 4.87886 42.3679 5.20192C42.782 5.53846 43.0977 5.98057 43.2819 6.48194C43.4884 6.97486 43.5612 7.51407 43.4927 8.04509C43.4338 8.55566 43.2333 9.04002 42.914 9.44341C42.5763 9.85578 42.1356 10.1714 41.6368 10.3581C41.1413 10.5556 40.6027 10.6176 40.0763 10.5377ZM42.31 9.00616C42.5459 8.71102 42.6918 8.3542 42.7301 7.97866C42.766 7.5708 42.6993 7.16079 42.5362 6.786C42.3896 6.40201 42.1514 6.06002 41.8423 5.78976C41.5587 5.53946 41.2083 5.37721 40.8337 5.32273C40.4478 5.27304 40.0552 5.32478 39.6947 5.47286C39.3298 5.61013 39.008 5.8427 38.7629 6.14635C38.5219 6.4428 38.3725 6.80297 38.333 7.18259C38.2958 7.58852 38.361 7.99695 38.5226 8.37041C38.668 8.7575 38.9081 9.10167 39.2208 9.3715C39.5075 9.61918 39.8591 9.77967 40.2343 9.83415C40.6202 9.88476 41.013 9.83299 41.3733 9.68403C41.7379 9.5462 42.0595 9.31372 42.3051 9.01054L42.31 9.00616Z" fill="#28334A"/>
<path d="M46.2771 7.27022C45.7772 7.1556 45.3229 6.90194 44.9664 6.53824C44.5903 6.15807 44.3255 5.68172 44.1995 5.15876C44.0537 4.64237 44.0504 4.09303 44.1901 3.56821C44.3249 3.0705 44.5938 2.61639 44.9673 2.25598C45.3668 1.87706 45.8551 1.60537 46.385 1.46722C46.8368 1.332 47.3113 1.30192 47.7716 1.3793C48.199 1.45978 48.5923 1.65942 48.9063 1.95536L48.434 2.50347C48.1849 2.28373 47.8796 2.13643 47.5501 2.07706C47.2167 2.00873 46.8698 2.02178 46.5386 2.1151C46.1493 2.21668 45.7914 2.41873 45.5013 2.70075C45.2212 2.971 45.0245 3.31539 44.9355 3.69143C44.8423 4.09902 44.8504 4.52086 44.9588 4.91987C45.0561 5.32438 45.2545 5.69544 45.5358 5.99873C45.7983 6.27422 46.136 6.46701 46.5091 6.5543C46.8982 6.65424 47.3094 6.64844 47.7005 6.5375C48.0259 6.45075 48.3288 6.29126 48.586 6.07125C48.8433 5.85092 49.0343 5.56357 49.1368 5.24269L49.8324 5.48943C49.705 5.91124 49.4595 6.29034 49.1252 6.58132C48.7713 6.88193 48.3549 7.0989 47.908 7.21547C47.3753 7.37674 46.8127 7.39562 46.2771 7.27022Z" fill="#28334A"/>
<path d="M59.6511 0.469393C59.8933 0.687896 60.0897 0.95248 60.2287 1.24762C60.3677 1.54276 60.4466 1.86252 60.4608 2.18814L60.8455 5.43786L60.0827 5.53033L59.7122 2.35283C59.6851 1.86912 59.4792 1.41215 59.1347 1.07098C58.9614 0.931868 58.7607 0.831183 58.5459 0.775607C58.3311 0.72003 58.1071 0.710836 57.8889 0.748641C57.6346 0.765416 57.3869 0.836285 57.1625 0.956518C56.9381 1.07675 56.7419 1.24359 56.5872 1.44594C56.2868 1.89542 56.1742 2.44547 56.2736 2.97851L56.63 5.90516L55.8715 6.00232L55.4921 2.82435C55.4662 2.34035 55.2601 1.88295 54.9145 1.54249C54.7408 1.40274 54.5391 1.302 54.3234 1.24711C54.1076 1.19221 53.8827 1.18446 53.6641 1.22436C53.4096 1.24074 53.1619 1.31143 52.9374 1.43169C52.7129 1.55196 52.5168 1.71901 52.3624 1.92166C52.0636 2.37008 51.9497 2.91749 52.0446 3.44954L52.3959 6.3893L51.6331 6.48177L50.9747 0.877066L51.6967 0.795777L51.8192 1.81618C51.9728 1.45545 52.2286 1.14802 52.555 0.931796C52.9119 0.698835 53.3199 0.555599 53.7445 0.514204C54.1672 0.456467 54.598 0.510704 54.9941 0.671515C55.3643 0.836744 55.6723 1.1165 55.8725 1.46957C56.038 1.06841 56.3173 0.725 56.676 0.481681C57.0566 0.222368 57.4974 0.0649661 57.9566 0.0243949C58.254 -0.0192776 58.5573 -0.00237483 58.8484 0.0740876C59.1396 0.150549 59.4126 0.284998 59.6511 0.469393Z" fill="#28334A"/>
<path d="M66.4442 0.675428C66.8631 0.946034 67.205 1.3262 67.43 1.77157C67.6691 2.24631 67.7864 2.76709 67.7704 3.28332C67.7826 3.79238 67.667 4.28751 67.4345 4.72284C67.2037 5.12298 66.8659 5.44562 66.4565 5.65694C66.0237 5.86404 65.5362 5.94754 65.0436 5.89892C64.6106 5.87319 64.183 5.74284 63.797 5.5189C63.4352 5.30396 63.1303 4.99934 62.9137 4.63641L62.893 7.75907L62.141 7.70251L62.1753 2.83633C62.1661 2.31331 62.2912 1.806 62.5384 1.36356C62.7767 0.957034 63.1317 0.637029 63.5604 0.442204C64.0123 0.225775 64.5213 0.138011 65.0356 0.187838C65.5303 0.230767 66.0148 0.39848 66.4442 0.675428ZM66.011 5.06181C66.3294 4.90156 66.5891 4.64921 66.7594 4.33471C66.9414 3.99749 67.0336 3.61382 67.0275 3.21865C67.0468 2.82191 66.9657 2.41979 66.7916 2.04981C66.6179 1.7118 66.3579 1.42264 66.0403 1.21442C65.7169 0.998578 65.3468 0.872466 64.9705 0.8498C64.5958 0.815071 64.2258 0.882823 63.8995 1.04587C63.5859 1.20572 63.3296 1.45495 63.1602 1.76485C62.9788 2.10411 62.8852 2.48855 62.8876 2.88497C62.8734 3.28552 62.9573 3.69019 63.1321 4.06347C63.3013 4.3966 63.5572 4.68114 63.8704 4.88437C64.1926 5.09867 64.5613 5.22316 64.9358 5.24417C65.3104 5.28099 65.6812 5.2181 66.011 5.06181Z" fill="#28334A"/>
<path d="M75.126 1.21403L74.2139 6.84557L73.4892 6.72324L73.6647 5.60829C73.3911 5.94751 73.025 6.19971 72.6104 6.33469C72.1862 6.47185 71.7337 6.50059 71.2939 6.4183C70.788 6.34678 70.3092 6.14194 69.9063 5.82478C69.5237 5.51422 69.2343 5.1036 69.0705 4.63905C68.9004 4.12167 68.8756 3.56846 68.9988 3.04027C69.0784 2.5225 69.2899 2.03507 69.6128 1.62486C69.9133 1.23966 70.3165 0.947816 70.7764 0.782674C71.2555 0.617584 71.7697 0.578263 72.2703 0.668438C72.6983 0.734719 73.1048 0.903402 73.4553 1.16015C73.7943 1.4285 74.0547 1.78369 74.2086 2.18762L74.382 1.11772L75.126 1.21403ZM72.5984 5.64734C72.943 5.51672 73.244 5.29301 73.4685 5.00086C73.709 4.67873 73.8652 4.30097 73.9229 3.9017C73.9926 3.50632 73.961 3.09889 73.8312 2.71741C73.7148 2.36282 73.4979 2.04912 73.2073 1.81472C72.9169 1.57168 72.5652 1.4141 72.1919 1.35971C71.8154 1.28887 71.4278 1.31996 71.069 1.44976C70.7231 1.57797 70.4214 1.80214 70.1989 2.09624C69.9556 2.41885 69.7977 2.79831 69.7398 3.19966C69.6723 3.60076 69.7083 4.0133 69.8443 4.39823C69.9649 4.75076 70.181 5.06338 70.4683 5.30092C70.7655 5.54071 71.121 5.69656 71.4974 5.75218C71.868 5.81499 72.2478 5.77882 72.5984 5.64734Z" fill="#28334A"/>
<path d="M78.4477 1.68283L79.1722 1.85109L78.3234 4.31666L81.7538 5.16687L82.6077 2.69677L83.3322 2.86502L81.4085 8.43521L80.684 8.26696L81.5319 5.81045L78.0965 4.96478L77.2812 7.45757L76.5566 7.28932L78.4477 1.68283Z" fill="#28334A"/>
<path d="M84.1306 9.7231C83.8027 9.31329 83.5967 8.82016 83.5372 8.30213C83.4737 7.76165 83.5528 7.21687 83.7667 6.72258C83.9701 6.22469 84.2982 5.78994 84.7197 5.45969C85.1271 5.15041 85.6146 4.96261 86.1276 4.91723C86.6694 4.87412 87.216 4.97128 87.7154 5.19946C88.1537 5.3785 88.5449 5.65961 88.8563 6.01917C89.1491 6.35174 89.3381 6.7624 89.3991 7.19857L88.6988 7.32745C88.6388 6.99449 88.4889 6.68263 88.2656 6.42607C88.0405 6.17039 87.7622 5.96756 87.451 5.83257C87.0812 5.66921 86.6785 5.60047 86.2795 5.63263C85.896 5.67328 85.534 5.82229 85.2354 6.06243C84.9169 6.32512 84.6703 6.66463 84.5178 7.05032C84.3479 7.43315 84.2804 7.8556 84.3218 8.27671C84.3638 8.6609 84.5116 9.02795 84.7484 9.33661C84.9999 9.65358 85.3266 9.90259 85.6974 10.0601C86.0075 10.1962 86.3425 10.262 86.6781 10.2527C87.013 10.2427 87.3368 10.1402 87.6139 9.95633L88.0034 10.5651C87.6521 10.8185 87.233 10.9626 86.7968 10.98C86.3309 10.9941 85.8658 10.9009 85.4371 10.7075C84.9259 10.4975 84.4755 10.1581 84.1306 9.7231Z" fill="#28334A"/>
<path d="M98.7564 11.4893C98.8145 11.8284 98.8036 12.1763 98.7244 12.5125C98.6452 12.8486 98.4994 13.1661 98.2955 13.446L96.4589 16.4023L95.7769 15.9838L97.5622 13.1004C97.7249 12.8925 97.8454 12.6548 97.9165 12.4011C97.9877 12.1474 98.0081 11.8826 97.9768 11.6221C97.9256 11.3983 97.8273 11.1885 97.6885 11.0065C97.5496 10.8245 97.3734 10.6745 97.1714 10.5665C96.9504 10.414 96.6992 10.3102 96.4343 10.262C96.1694 10.2137 95.8967 10.2221 95.634 10.2866C95.0839 10.4676 94.622 10.8522 94.3436 11.3609L92.6933 14.0245L92.0113 13.606L93.796 10.7321C94.0988 10.316 94.2312 9.80115 94.166 9.29398C94.1155 9.07001 94.0181 8.85974 93.8801 8.67704C93.7422 8.49433 93.5668 8.34333 93.3655 8.23396C93.1436 8.08335 92.892 7.98143 92.627 7.93483C92.3621 7.88822 92.0897 7.89798 91.8276 7.96345C91.2783 8.14047 90.8162 8.52191 90.5377 9.02833L88.8874 11.6919L88.2054 11.2734L91.3549 6.1982L92.0049 6.60104L91.4339 7.5256C91.7998 7.32905 92.2132 7.24071 92.6254 7.271C93.0773 7.30296 93.5135 7.44485 93.8961 7.68434C94.285 7.91003 94.6058 8.2357 94.8257 8.62798C95.0263 9.00148 95.0975 9.43202 95.0282 9.85288C95.4269 9.63527 95.8789 9.53719 96.3296 9.57049C96.8204 9.60205 97.2941 9.7573 97.7064 10.0218C97.9702 10.1841 98.1988 10.3974 98.379 10.6492C98.5592 10.9011 98.6875 11.1866 98.7564 11.4893Z" fill="#28334A"/>
<path d="M101.541 19.8706C101.404 20.0433 101.228 20.1814 101.028 20.2726C100.828 20.3638 100.611 20.4051 100.396 20.393C99.8395 20.3268 99.3265 20.0869 98.9295 19.7072L97.0722 18.1429L100.765 13.8663L102.577 15.3988C103 15.6864 103.318 16.0997 103.49 16.5839C103.528 16.7838 103.515 16.9926 103.451 17.1912C103.388 17.3898 103.276 17.5719 103.127 17.7208C102.945 17.9391 102.698 18.0936 102.425 18.1594C102.144 18.2186 101.856 18.1971 101.595 18.0973C101.818 18.3314 101.937 18.6466 101.926 18.9772C101.916 19.3077 101.778 19.6278 101.541 19.8706ZM100.274 19.7093C100.415 19.723 100.559 19.699 100.69 19.6398C100.822 19.5806 100.938 19.4883 101.025 19.3724C101.125 19.2706 101.199 19.1472 101.241 19.013C101.284 18.8789 101.293 18.7381 101.268 18.6029C101.159 18.267 100.946 17.978 100.66 17.775L99.3031 16.6257L98.0135 18.1121L99.3211 19.2165C99.5818 19.4689 99.912 19.6396 100.274 19.7093ZM99.6719 16.2041L100.906 17.2454C101.148 17.4786 101.459 17.63 101.798 17.6799C101.934 17.688 102.071 17.6621 102.197 17.6047C102.324 17.5473 102.435 17.46 102.522 17.3509C102.619 17.2504 102.69 17.1278 102.727 16.9951C102.764 16.8624 102.766 16.7241 102.734 16.5936C102.625 16.276 102.425 16.001 102.157 15.8015L100.923 14.7603L99.6719 16.2041Z" fill="#28334A"/>
<path d="M102.636 22.2912C102.513 21.7895 102.53 21.2635 102.687 20.7714C102.848 20.256 103.146 19.7941 103.549 19.4347C103.939 19.0584 104.421 18.7922 104.946 18.6634C105.447 18.5452 105.97 18.568 106.459 18.7293C106.968 18.8981 107.425 19.1958 107.785 19.5934C108.154 19.9829 108.418 20.4597 108.553 20.979C108.674 21.4777 108.656 22 108.502 22.4894C108.336 23.0023 108.037 23.4618 107.636 23.8212C107.247 24.198 106.764 24.4643 106.238 24.5926C105.741 24.7178 105.218 24.6998 104.73 24.5408C104.22 24.373 103.762 24.077 103.399 23.6811C103.028 23.2918 102.766 22.8128 102.636 22.2912ZM104.889 23.8114C105.253 23.9285 105.644 23.9346 106.012 23.8287C106.413 23.7196 106.78 23.511 107.079 23.222C107.389 22.941 107.625 22.5878 107.767 22.1936C107.895 21.8403 107.919 21.4577 107.838 21.0906C107.744 20.7069 107.55 20.3551 107.275 20.0708C107.012 19.7773 106.676 19.5596 106.301 19.4402C105.934 19.3258 105.543 19.3181 105.173 19.4179C104.77 19.5285 104.402 19.7387 104.101 20.029C103.791 20.3085 103.558 20.6626 103.423 21.0579C103.294 21.4198 103.274 21.8114 103.364 22.1849C103.456 22.5676 103.647 22.9192 103.918 23.2043C104.182 23.4949 104.518 23.7094 104.893 23.8256L104.889 23.8114Z" fill="#28334A"/>
<path d="M119.323 57.9879C119.544 57.5251 119.888 57.1324 120.317 56.8527C120.772 56.5605 121.295 56.3932 121.835 56.3676C122.371 56.3279 122.908 56.432 123.391 56.6692C123.851 56.8962 124.238 57.2484 124.507 57.6853C124.796 58.141 124.962 58.6631 124.991 59.2014C125.028 59.6679 124.954 60.1363 124.777 60.5687C124.611 60.9717 124.331 61.3167 123.97 61.5608L123.536 60.999C123.803 60.7998 124.012 60.532 124.141 60.2236C124.269 59.9138 124.323 59.578 124.298 59.2432C124.284 58.844 124.163 58.4557 123.947 58.1195C123.742 57.7942 123.445 57.5363 123.095 57.3775C122.717 57.2037 122.302 57.1287 121.887 57.1596C121.471 57.1753 121.065 57.2974 120.71 57.5144C120.386 57.7172 120.125 58.0073 119.958 58.3515C119.789 58.7113 119.716 59.1087 119.745 59.5054C119.76 59.8411 119.852 60.1688 120.016 60.4623C120.176 60.754 120.414 60.9952 120.704 61.1584L120.358 61.7527C119.958 61.5506 119.629 61.2298 119.418 60.8342C119.195 60.4245 119.066 59.9703 119.041 59.5048C119.01 58.9835 119.107 58.4628 119.323 57.9879Z" fill="#28334A"/>
<path d="M123.858 70.4353L123.927 67.3255L119.173 66.6352L119.188 65.9007L124.597 66.6868L124.508 70.5263L123.858 70.4353Z" fill="#28334A"/>
<path d="M123.547 76.7762L117.939 75.7281L118.073 74.9975L119.182 75.2092C118.85 74.9221 118.605 74.5471 118.475 74.1272C118.346 73.6992 118.325 73.2457 118.414 72.8074C118.503 72.3067 118.721 71.8379 119.046 71.4468C119.363 71.0689 119.778 70.7867 120.246 70.6316C120.747 70.4704 121.281 70.4421 121.796 70.5496C122.318 70.6308 122.81 70.8484 123.222 71.1805C123.601 71.4949 123.885 71.9094 124.04 72.377C124.199 72.8585 124.229 73.3731 124.129 73.8701C124.055 74.2982 123.879 74.7021 123.615 75.0469C123.355 75.3824 123.011 75.6424 122.617 75.8002L123.668 76.0133L123.547 76.7762ZM119.162 74.1268C119.284 74.4784 119.502 74.7881 119.793 75.0194C120.11 75.2716 120.485 75.4391 120.884 75.5061C121.28 75.5886 121.69 75.5679 122.076 75.4461C122.43 75.3356 122.746 75.128 122.988 74.8468C123.231 74.555 123.393 74.2046 123.458 73.8306C123.536 73.4571 123.511 73.0695 123.386 72.7093C123.264 72.3577 123.046 72.048 122.755 71.8167C122.438 71.5646 122.063 71.3971 121.664 71.33C121.268 71.2475 120.858 71.2682 120.472 71.39C120.118 71.5005 119.802 71.7082 119.56 71.9894C119.314 72.2828 119.152 72.6369 119.09 73.0145C119.01 73.3849 119.035 73.7701 119.162 74.1268Z" fill="#28334A"/>
<path d="M120.737 83.3469C120.37 83.6883 119.914 83.9176 119.42 84.0085C118.887 84.1028 118.337 84.0586 117.822 83.8802C117.307 83.722 116.838 83.436 116.46 83.0488C116.11 82.6881 115.866 82.238 115.756 81.7492C115.643 81.2356 115.67 80.7029 115.835 80.2077C115.965 79.7619 116.203 79.357 116.529 79.0291C116.83 78.7274 117.207 78.5135 117.621 78.41L114.511 77.39L114.726 76.653L119.572 78.2381C120.094 78.3985 120.568 78.6881 120.952 79.0799C121.308 79.4492 121.554 79.9115 121.659 80.4123C121.762 80.943 121.728 81.4895 121.56 81.9991C121.409 82.5147 121.125 82.9796 120.737 83.3469ZM116.455 81.5116C116.537 81.8886 116.726 82.2351 117 82.5083C117.29 82.8059 117.65 83.0247 118.045 83.1438C118.436 83.2807 118.854 83.3154 119.259 83.2444C119.637 83.1861 119.989 83.0177 120.27 82.7601C120.563 82.4985 120.778 82.1602 120.891 81.782C121.014 81.4072 121.033 81.0046 120.948 80.6165C120.86 80.2468 120.672 79.907 120.406 79.634C120.109 79.3396 119.745 79.1226 119.347 79.0023C118.953 78.8669 118.534 78.829 118.125 78.8919C117.751 78.9495 117.403 79.1147 117.123 79.3674C116.834 79.631 116.623 79.9692 116.512 80.3461C116.394 80.7191 116.377 81.1184 116.465 81.5029L116.455 81.5116Z" fill="#28334A"/>
<path d="M117.74 91.433L112.338 88.932L112.658 88.2316L113.73 88.7266C113.47 88.3594 113.32 87.9263 113.296 87.4771C113.272 87.0085 113.367 86.5415 113.569 86.1185C113.785 85.6338 114.126 85.2152 114.556 84.9058C114.971 84.6039 115.462 84.4252 115.973 84.3905C116.521 84.3521 117.07 84.4574 117.564 84.6957C118.065 84.9207 118.5 85.2681 118.831 85.7058C119.139 86.1183 119.321 86.6113 119.355 87.1252C119.394 87.6544 119.294 88.1845 119.063 88.6621C118.881 89.0828 118.596 89.4508 118.234 89.7321C117.888 90.0035 117.475 90.1773 117.039 90.2356L118.065 90.7093L117.74 91.433ZM113.989 87.6409C114.025 88.0291 114.169 88.3994 114.404 88.7101C114.661 89.0437 114.997 89.3079 115.382 89.4786C115.763 89.6605 116.183 89.7442 116.604 89.722C116.991 89.7034 117.365 89.5722 117.679 89.3444C118 89.1166 118.253 88.8051 118.41 88.4438C118.583 88.0851 118.657 87.6869 118.626 87.2898C118.591 86.9035 118.449 86.5348 118.215 86.2255C117.961 85.8892 117.624 85.6245 117.237 85.457C116.859 85.2725 116.44 85.1872 116.02 85.2092C115.633 85.2299 115.258 85.359 114.94 85.5818C114.619 85.8192 114.363 86.1357 114.2 86.5007C114.028 86.8497 113.951 87.2378 113.976 87.626L113.989 87.6409Z" fill="#28334A"/>
<path d="M116.376 93.4215L116.012 94.0369L113.884 92.6377L112.196 95.5178L114.32 96.9121L113.96 97.5323L109.163 94.3691L109.526 93.7537L111.642 95.1472L113.334 92.2719L111.219 90.8785L111.578 90.2583L116.376 93.4215Z" fill="#28334A"/>
<path d="M106.675 106.226C106.338 106.219 106.001 106.143 105.685 106.004C105.369 105.864 105.08 105.663 104.836 105.413L102.221 103.093L102.723 102.513L105.266 104.763C105.628 105.125 106.105 105.344 106.601 105.375C106.832 105.369 107.056 105.312 107.258 105.209C107.46 105.105 107.634 104.958 107.769 104.777C107.947 104.59 108.081 104.365 108.162 104.117C108.243 103.868 108.269 103.602 108.239 103.336C108.14 102.771 107.83 102.253 107.374 101.89L105.012 99.7954L105.51 99.2105L108.048 101.464C108.411 101.827 108.888 102.046 109.384 102.076C109.615 102.07 109.839 102.013 110.04 101.909C110.242 101.806 110.416 101.659 110.552 101.478C110.729 101.292 110.862 101.068 110.944 100.82C111.026 100.573 111.054 100.308 111.026 100.042C110.929 99.474 110.616 98.9534 110.156 98.5914L107.8 96.4924L108.293 95.9118L112.802 99.9119L112.324 100.47L111.504 99.7385C111.645 100.131 111.674 100.548 111.589 100.943C111.489 101.37 111.287 101.76 111 102.081C110.727 102.419 110.364 102.67 109.95 102.81C109.556 102.929 109.128 102.914 108.727 102.769C108.89 103.19 108.93 103.644 108.842 104.073C108.743 104.53 108.536 104.95 108.238 105.298C108.063 105.558 107.833 105.775 107.564 105.934C107.295 106.094 106.992 106.193 106.675 106.226Z" fill="#28334A"/>
<path d="M100.737 111.908L96.9902 107.446L97.5006 106.986L98.1845 107.801C98.1041 107.415 98.1305 107.023 98.2606 106.67C98.4005 106.291 98.6367 105.964 98.9471 105.717C99.1663 105.509 99.4285 105.351 99.7182 105.253C100.008 105.155 100.319 105.118 100.634 105.145C100.958 105.199 101.273 105.32 101.56 105.5C101.846 105.68 102.097 105.915 102.298 106.19L104.472 108.778L103.917 109.233L101.791 106.708C101.492 106.298 101.055 106.008 100.574 105.901C100.344 105.876 100.115 105.899 99.9016 105.97C99.6887 106.041 99.4967 106.158 99.338 106.313C99.1396 106.458 98.9775 106.647 98.8625 106.868C98.7475 107.088 98.6822 107.334 98.6707 107.591C98.6866 108.139 98.9121 108.678 99.3001 109.095L101.265 111.44L100.737 111.908Z" fill="#28334A"/>
<path d="M92.9907 110.765C92.7914 111.046 92.6614 111.368 92.6121 111.702L91.9544 111.506C92.0127 111.094 92.1698 110.697 92.4123 110.348C92.6796 109.971 93.0167 109.646 93.4041 109.393C93.8931 109.061 94.4538 108.858 95.0305 108.803C95.5612 108.74 96.0905 108.829 96.5561 109.059C97.0388 109.297 97.4416 109.664 97.7231 110.12C98.0187 110.563 98.1911 111.081 98.2239 111.623C98.2517 112.131 98.1367 112.645 97.8917 113.107C97.6344 113.588 97.256 113.998 96.7958 114.296C96.3734 114.578 95.8907 114.751 95.3947 114.796C94.9044 114.845 94.4176 114.759 93.9871 114.549C93.5263 114.329 93.1381 113.99 92.8613 113.564L96.5576 109.987C96.1986 109.682 95.738 109.515 95.2534 109.514C94.7475 109.523 94.248 109.686 93.8218 109.98C93.492 110.179 93.2078 110.447 92.9907 110.765ZM97.2051 112.858C97.3851 112.517 97.468 112.139 97.4443 111.765C97.4196 111.354 97.2876 110.963 97.0611 110.629C96.987 110.546 96.9348 110.488 96.8999 110.45L93.7229 113.524C94.0442 113.877 94.4864 114.099 94.9721 114.152C95.4661 114.196 95.9692 114.055 96.3838 113.756C96.7326 113.534 97.0171 113.223 97.2051 112.858Z" fill="#28334A"/>
<path d="M87.4742 119.582L84.8272 114.374L85.483 114.056L85.9681 115.011C85.9855 114.613 86.1133 114.232 86.3372 113.911C86.5832 113.561 86.9162 113.282 87.305 113.101C87.5837 112.945 87.8924 112.848 88.2131 112.814C88.5338 112.781 88.8603 112.811 89.1737 112.905C89.4864 113.027 89.7731 113.212 90.0159 113.448C90.2586 113.684 90.4522 113.965 90.5847 114.276L92.1211 117.295L91.4332 117.625L89.9352 114.676C89.7357 114.209 89.3659 113.831 88.9039 113.624C88.6774 113.55 88.4398 113.523 88.2061 113.546C87.9723 113.569 87.7476 113.64 87.546 113.755C87.3063 113.856 87.0923 114.007 86.9182 114.199C86.7441 114.39 86.6139 114.619 86.5361 114.868C86.4023 115.41 86.4886 115.991 86.7761 116.485L88.1634 119.216L87.4742 119.582ZM91.3854 119.025C91.5765 119.079 91.7547 119.175 91.9073 119.306C92.0599 119.436 92.183 119.598 92.2679 119.78L91.7737 120.023C91.7161 119.905 91.6342 119.8 91.5335 119.716C91.4329 119.632 91.3159 119.57 91.1908 119.535C90.9269 119.466 90.6505 119.493 90.4116 119.612C90.1585 119.721 89.9587 119.923 89.8518 120.178C89.8008 120.296 89.7776 120.424 89.7842 120.554C89.7908 120.684 89.8269 120.812 89.8898 120.928L89.3955 121.171C89.2969 120.995 89.2382 120.8 89.2238 120.601C89.2094 120.402 89.2396 120.204 89.3122 120.022C89.4921 119.641 89.8034 119.341 90.1903 119.177C90.5588 118.988 90.987 118.939 91.3985 119.039L91.3854 119.025Z" fill="#28334A"/>
<path d="M78.6006 122.421C78.132 122.348 77.7125 122.138 77.3925 121.817C77.0471 121.478 76.8086 121.044 76.7004 120.558C76.5761 120.081 76.5815 119.564 76.7161 119.057C76.8423 118.587 77.0938 118.144 77.4429 117.776C77.8149 117.398 78.2696 117.111 78.7612 116.944C79.1871 116.785 79.6331 116.728 80.0593 116.779C80.4602 116.826 80.8269 116.982 81.121 117.23L80.4139 114.315L81.1591 114.054L82.262 118.598C82.3907 119.081 82.3877 119.604 82.2532 120.117C82.1237 120.597 81.8599 121.046 81.4937 121.411C81.1048 121.797 80.6331 122.089 80.1249 122.258C79.6233 122.444 79.0972 122.5 78.6006 122.421ZM78.0011 118.167C77.7297 118.446 77.5371 118.788 77.4467 119.15C77.3466 119.538 77.3432 119.932 77.4368 120.298C77.5229 120.657 77.7004 120.978 77.9537 121.232C78.1956 121.478 78.5117 121.643 78.8661 121.707C79.2315 121.773 79.621 121.736 79.9929 121.601C80.3627 121.476 80.7041 121.259 80.9812 120.971C81.2468 120.691 81.437 120.352 81.5306 119.993C81.626 119.603 81.625 119.207 81.5277 118.841C81.4467 118.468 81.2691 118.133 81.011 117.867C80.7766 117.618 80.4644 117.451 80.1125 117.387C79.7488 117.325 79.362 117.364 78.9935 117.502C78.6187 117.638 78.2756 117.868 78.0011 118.167Z" fill="#28334A"/>
<path d="M71.303 119.432C71.0211 119.615 70.7831 119.859 70.6081 120.145L70.0996 119.74C70.3112 119.383 70.6035 119.079 70.9518 118.851C71.328 118.608 71.747 118.441 72.1828 118.363C72.7356 118.245 73.3033 118.268 73.8319 118.43C74.3232 118.579 74.7559 118.866 75.0801 119.256C75.4104 119.666 75.6217 120.161 75.6924 120.69C75.7836 121.213 75.7379 121.756 75.5596 122.269C75.3885 122.748 75.0892 123.176 74.6951 123.505C74.2852 123.852 73.7915 124.081 73.2697 124.169C72.7815 124.273 72.2802 124.249 71.816 124.098C71.3685 123.949 70.9747 123.681 70.6756 123.322C70.3565 122.938 70.145 122.475 70.0613 121.976L74.7042 120.113C74.5134 119.679 74.1729 119.332 73.7418 119.133C73.2902 118.942 72.7838 118.898 72.2923 119.007C71.94 119.082 71.6034 119.226 71.303 119.432ZM74.2078 123.004C74.4967 122.756 74.7152 122.436 74.8396 122.08C74.9712 121.691 75.0022 121.28 74.9295 120.885C74.9237 120.805 74.9094 120.725 74.887 120.647L70.9056 122.243C71.0551 122.687 71.3572 123.058 71.7604 123.293C72.1794 123.531 72.6779 123.603 73.1623 123.497C73.5562 123.431 73.9291 123.259 74.2406 123L74.2078 123.004Z" fill="#28334A"/>
<path d="M64.1446 121.382C64.0315 121.281 63.9395 121.159 63.874 121.022C63.8085 120.885 63.7708 120.737 63.7629 120.585C63.74 120.266 63.8376 119.949 64.0362 119.697C64.2647 119.411 64.5612 119.187 64.8982 119.045C65.2938 118.876 65.7155 118.778 66.1441 118.755C66.5431 118.726 66.9438 118.755 67.334 118.84C67.705 118.921 68.0582 119.068 68.3771 119.273L68.1646 119.856C67.884 119.675 67.5728 119.547 67.2458 119.477C66.9098 119.398 66.5632 119.37 66.2182 119.396C65.7794 119.41 65.3517 119.542 64.9804 119.779C64.8388 119.861 64.7229 119.982 64.6457 120.126C64.5686 120.271 64.5334 120.434 64.544 120.597C64.5525 120.738 64.5984 120.873 64.6768 120.99C64.7552 121.107 64.8633 121.2 64.9902 121.261C65.3382 121.415 65.722 121.472 66.101 121.425L67.0492 121.353L67.0891 121.9L66.1805 121.97C65.8304 121.979 65.4895 122.088 65.1969 122.282C65.0868 122.353 64.9978 122.452 64.9395 122.569C64.8811 122.686 64.8556 122.817 64.8656 122.947C64.8748 123.09 64.9234 123.227 65.0061 123.344C65.0888 123.461 65.2022 123.552 65.334 123.607C65.689 123.764 66.0799 123.822 66.4664 123.777C67.0825 123.724 67.6778 123.524 68.2029 123.195L68.4483 123.756C67.8423 124.143 67.15 124.372 66.4349 124.422C66.0473 124.458 65.6568 124.427 65.2806 124.33C64.9673 124.249 64.6801 124.089 64.4455 123.867C64.2403 123.666 64.1189 123.395 64.1057 123.107C64.0824 122.83 64.167 122.554 64.3418 122.337C64.5403 122.093 64.7992 121.905 65.0923 121.793C64.7416 121.755 64.4113 121.611 64.1446 121.382Z" fill="#28334A"/>
<path d="M57.3889 124.993L57.8027 119.95C57.8041 119.172 58.1053 118.399 58.6449 117.788C58.9336 117.538 59.2668 117.346 59.6233 117.225C59.9798 117.103 60.3518 117.055 60.7154 117.083C61.2014 117.079 61.6776 117.157 62.1233 117.315C62.52 117.445 62.8744 117.664 63.16 117.957L62.7171 118.547C62.4752 118.294 62.1791 118.098 61.8472 117.971C61.4831 117.834 61.0917 117.766 60.6915 117.768C60.4267 117.751 60.1565 117.788 59.898 117.879C59.6394 117.969 59.398 118.11 59.1891 118.293C58.8012 118.74 58.5882 119.303 58.5938 119.867L58.5352 120.533C58.7569 120.197 59.0638 119.92 59.4215 119.735C59.8093 119.548 60.2291 119.454 60.645 119.461C60.9689 119.442 61.288 119.487 61.5836 119.594C61.8791 119.701 62.1454 119.867 62.3667 120.082C62.5776 120.326 62.7313 120.615 62.8182 120.931C62.9051 121.246 62.9232 121.582 62.8715 121.917L62.6235 124.969L61.8442 124.975L62.0854 121.995C62.1622 121.5 62.0454 121.011 61.7593 120.63C61.6026 120.469 61.411 120.344 61.1968 120.265C60.9825 120.185 60.7501 120.152 60.5144 120.168C60.2514 120.155 59.984 120.198 59.7296 120.293C59.4751 120.388 59.239 120.534 59.0367 120.72C58.6317 121.143 58.3979 121.693 58.3861 122.252L58.1532 125.001L57.3889 124.993Z" fill="#28334A"/>
<path d="M49.772 123.997L50.6183 118.295L51.3876 118.429L50.6584 123.436L53.3827 123.912L53.667 122.52C53.8146 121.599 54.0854 120.707 54.4722 119.866C54.5653 119.609 54.7448 119.394 54.9806 119.259C55.2163 119.123 55.4938 119.075 55.7663 119.122C55.9529 119.158 56.1344 119.22 56.306 119.304L56.1543 119.952C56.0705 119.913 55.9831 119.882 55.8935 119.861C55.7538 119.834 55.6105 119.847 55.4803 119.899C55.3502 119.951 55.2385 120.039 55.1583 120.154C54.951 120.444 54.7998 120.771 54.7123 121.12C54.6021 121.51 54.482 122.041 54.3528 122.694L53.9541 124.709L49.772 123.997Z" fill="#28334A"/>
<path d="M48.1204 117.712C48.258 117.961 48.3332 118.245 48.3409 118.546C48.3486 118.846 48.2886 119.154 48.165 119.45L46.8949 122.997L46.1607 122.858L46.9903 120.509C46.7059 120.706 46.3859 120.834 46.0609 120.882C45.6755 120.951 45.2919 120.946 44.9319 120.867C44.3425 120.788 43.8413 120.484 43.53 120.016C43.4077 119.794 43.3391 119.542 43.3287 119.275C43.3182 119.009 43.3661 118.734 43.4693 118.469C43.561 118.175 43.7139 117.894 43.9175 117.646C44.121 117.397 44.3705 117.187 44.6487 117.03C45.2735 116.702 45.9665 116.613 46.5788 116.779C47.229 116.86 47.7817 117.195 48.1204 117.712ZM45.0475 117.567C44.8551 117.685 44.6833 117.838 44.5431 118.015C44.4028 118.193 44.297 118.391 44.2321 118.598C44.1581 118.79 44.1254 118.989 44.1363 119.181C44.1472 119.373 44.2015 119.554 44.2953 119.711C44.5278 120.053 44.9002 120.273 45.3361 120.326C45.6769 120.403 46.0455 120.39 46.4082 120.289C46.7283 120.195 47.0273 120.012 47.2663 119.763L47.4484 119.247C47.5295 119.043 47.5696 118.832 47.5662 118.625C47.5628 118.419 47.516 118.222 47.4286 118.047C47.1995 117.688 46.8213 117.454 46.3744 117.396C46.1659 117.336 45.9404 117.321 45.7114 117.351C45.4825 117.381 45.2549 117.456 45.0424 117.572L45.0475 117.567Z" fill="#28334A"/>
<path d="M33.2092 117.375C33.1078 117.062 33.0679 116.736 33.0918 116.415C33.1156 116.094 33.2027 115.785 33.3481 115.506L34.5845 112.56L35.2827 112.89L34.0528 115.742C33.8367 116.164 33.7955 116.663 33.9377 117.137C34.021 117.342 34.1451 117.53 34.3021 117.689C34.459 117.848 34.6454 117.974 34.849 118.059C35.0792 118.181 35.3294 118.255 35.5835 118.275C35.8375 118.295 36.0898 118.262 36.3239 118.177C36.8064 117.954 37.1743 117.547 37.3517 117.041L38.471 114.375L39.169 114.714L37.9391 117.566C37.7277 117.988 37.6851 118.483 37.8197 118.956C37.904 119.167 38.0313 119.361 38.1931 119.523C38.3548 119.686 38.5471 119.814 38.7572 119.898C38.9866 120.021 39.2364 120.094 39.4899 120.114C39.7435 120.133 39.995 120.098 40.2278 120.011C40.7122 119.793 41.0833 119.389 41.2642 118.885L42.3747 116.218L43.0772 116.553L40.9462 121.63L40.2744 121.312L40.6632 120.386C40.3562 120.606 39.9865 120.727 39.5995 120.734C39.1751 120.741 38.7492 120.643 38.359 120.449C37.9562 120.268 37.6013 119.987 37.33 119.633C37.0883 119.296 36.9556 118.896 36.9514 118.492C36.6218 118.737 36.2225 118.876 35.8023 118.891C35.3421 118.904 34.8791 118.8 34.4558 118.588C33.9071 118.356 33.4589 117.92 33.2092 117.375Z" fill="#28334A"/>
<path d="M25.3503 113.284L28.2671 108.834L28.8414 109.214L28.2653 110.095C28.6199 109.914 29.0173 109.833 29.4147 109.861C29.833 109.899 30.2355 110.04 30.5855 110.273C30.9828 110.533 31.3055 110.892 31.5218 111.314C31.7418 111.728 31.8404 112.195 31.8062 112.662C31.7667 113.152 31.6001 113.623 31.323 114.029C31.0545 114.438 30.6848 114.772 30.2495 114.996C29.8409 115.22 29.3766 115.321 28.9119 115.288C28.4393 115.251 27.9843 115.092 27.5919 114.825C27.2536 114.607 26.9715 114.311 26.7686 113.963C26.573 113.619 26.4738 113.229 26.4814 112.834L25.9278 113.686L25.3503 113.284ZM29.207 110.457C28.8601 110.439 28.5152 110.517 28.2097 110.682C27.8756 110.856 27.5913 111.112 27.3837 111.427C27.1715 111.738 27.0414 112.099 27.0054 112.474C26.9742 112.819 27.0395 113.165 27.1939 113.475C27.3562 113.789 27.5963 114.056 27.8911 114.251C28.1867 114.45 28.5294 114.567 28.8846 114.59C29.2298 114.611 29.5738 114.534 29.8775 114.369C30.21 114.193 30.4938 113.937 30.7035 113.624C30.9135 113.312 31.0434 112.952 31.0818 112.577C31.1126 112.231 31.0459 111.883 30.8893 111.572C30.7281 111.255 30.4862 110.986 30.1881 110.792C29.8925 110.593 29.5498 110.476 29.1947 110.452L29.207 110.457Z" fill="#28334A"/>
<path d="M17.3792 105.335C17.3733 105.015 17.4308 104.701 17.5484 104.413C17.666 104.125 17.8412 103.868 18.0639 103.658L20.1223 101.371L20.6886 101.894L18.6964 104.113C18.3644 104.426 18.1745 104.866 18.166 105.341C18.1787 105.563 18.2404 105.783 18.3466 105.986C18.4528 106.188 18.6007 106.368 18.7797 106.511C18.9611 106.696 19.1766 106.844 19.4119 106.943C19.6473 107.043 19.8972 107.093 20.1452 107.089C20.669 107.04 21.1399 106.791 21.4636 106.392L23.3277 104.324L23.894 104.847L21.8976 107.06C21.5792 107.375 21.3992 107.808 21.3934 108.273C21.407 108.495 21.4691 108.716 21.5752 108.918C21.6813 109.12 21.8288 109.3 22.0071 109.443C22.1886 109.628 22.4043 109.775 22.6399 109.873C22.8754 109.971 23.1253 110.019 23.3727 110.013C23.8971 109.971 24.3696 109.725 24.6911 109.324L26.5551 107.256L27.1215 107.78L23.5701 111.722L23.0295 111.219L23.6745 110.499C23.3147 110.602 22.925 110.594 22.5532 110.476C22.151 110.343 21.7788 110.117 21.467 109.818C21.1371 109.53 20.8839 109.163 20.7344 108.755C20.607 108.371 20.6021 107.964 20.7205 107.596C20.3313 107.711 19.909 107.709 19.5033 107.59C19.0624 107.455 18.6534 107.214 18.3135 106.888C18.0648 106.7 17.8534 106.465 17.6927 106.198C17.5319 105.93 17.4252 105.637 17.3792 105.335Z" fill="#28334A"/>
<path d="M11.8463 99.4106L16.3632 95.8164L16.8302 96.4032L15.9383 97.1117C16.3698 97.0528 16.8091 97.1136 17.2082 97.2873C17.6135 97.467 17.9677 97.7447 18.2391 98.0955C18.5625 98.4924 18.7767 98.967 18.8606 99.4725C18.9401 99.9654 18.8801 100.471 18.6874 100.932C18.4784 101.423 18.1456 101.852 17.7215 102.176C17.313 102.517 16.8218 102.744 16.2977 102.834C15.806 102.92 15.3002 102.864 14.8397 102.672C14.3682 102.474 13.9567 102.156 13.6458 101.75C13.3638 101.41 13.1702 101.006 13.0823 100.572C13.0002 100.154 13.031 99.7218 13.1715 99.3193L12.3127 100.007L11.8463 99.4106ZM16.774 97.8091C16.4205 97.6731 16.0357 97.6405 15.6642 97.715C15.2629 97.792 14.8873 97.9691 14.5724 98.2301C14.2436 98.477 13.9852 98.8059 13.8229 99.1838C13.6713 99.5276 13.6211 99.9075 13.6781 100.279C13.7365 100.657 13.8943 101.012 14.1352 101.309C14.3699 101.615 14.6823 101.852 15.04 101.996C15.3874 102.135 15.7674 102.172 16.1354 102.103C16.5389 102.032 16.9169 101.856 17.2315 101.593C17.5541 101.342 17.81 101.016 17.9762 100.643C18.125 100.299 18.1752 99.9197 18.121 99.5485C18.0596 99.1669 17.899 98.8084 17.6553 98.5089C17.4293 98.2039 17.1267 97.9641 16.7783 97.8139L16.774 97.8091Z" fill="#28334A"/>
<path d="M117.908 40.3499C117.911 41.4547 117.018 42.3524 115.915 42.3549C114.811 42.3574 113.914 41.4637 113.912 40.3589C113.91 39.2541 114.802 38.3565 115.906 38.354C117.009 38.3515 117.906 39.2451 117.908 40.3499Z" fill="#C4C4C4"/>
<path d="M8.91005 82.0825C8.91254 83.1873 8.02002 84.0849 6.91655 84.0874C5.81308 84.0899 4.91652 83.1963 4.91403 82.0915C4.91155 80.9867 5.80407 80.089 6.90754 80.0865C8.01101 80.084 8.90757 80.9776 8.91005 82.0825Z" fill="#C4C4C4"/>
<path d="M65.002 42.9394L68.2496 49.4741C69.4404 51.8575 69.4404 54.6671 68.2496 57.0505L58.7077 76.3389C57.3158 79.1643 54.4703 80.9479 51.3618 80.9479H46.1655L65.002 42.9394Z" fill="#28334A"/>
<path d="M80.9728 78.4214C81.036 78.4057 81.0834 78.4057 81.1308 78.39C79.9302 79.681 78.2873 80.5942 76.3916 80.8618C71.9841 81.5073 67.8768 78.4529 67.2291 74.0445C66.5972 69.6991 69.5829 65.6528 73.9114 64.9443C72.3 66.6762 71.447 69.0851 71.8261 71.6042C72.458 76.0126 76.5495 79.067 80.9728 78.4214Z" fill="#C4C4C4"/>
<path d="M80.1318 67.4449C80.1318 68.8259 79.0136 69.9454 77.6343 69.9454C76.2549 69.9454 75.1368 68.8259 75.1368 67.4449C75.1368 66.0639 76.2549 64.9443 77.6343 64.9443C79.0136 64.9443 80.1318 66.0639 80.1318 67.4449Z" fill="#28334A"/>
</svg>
