<svg width="1920" height="500" viewBox="0 0 1920 500" fill="none" xmlns="http://www.w3.org/2000/svg">
<mask id="mask0_293_4020" style="mask-type:alpha" maskUnits="userSpaceOnUse" x="0" y="0" width="1920" height="500">
<rect width="1920" height="500" fill="#28334A"/>
</mask>
<g mask="url(#mask0_293_4020)">
<path fill-rule="evenodd" clip-rule="evenodd" d="M520.283 34.686L470.389 -64L181.004 510H260.834C308.59 510 352.307 483.064 373.69 440.395L520.283 149.105C538.578 113.11 538.578 70.6802 520.283 34.686ZM709.805 471.572C709.445 471.627 709.058 471.686 708.621 471.796C641.889 481.557 580.163 435.369 570.63 368.707C564.91 330.615 577.779 294.188 602.089 268C536.787 278.713 491.744 339.9 501.277 405.61C511.048 472.272 573.013 518.459 639.506 508.698C668.105 504.651 692.891 490.842 711.004 471.319C710.617 471.448 710.23 471.507 709.805 471.572ZM701.004 304.5C701.004 325.763 683.767 343 662.504 343C641.241 343 624.004 325.763 624.004 304.5C624.004 283.237 641.241 266 662.504 266C683.767 266 701.004 283.237 701.004 304.5ZM1422.89 430.441L1469.17 522.278L1739 -10.4428L1664.76 -10.6418C1620.35 -10.7609 1579.66 14.1629 1559.72 53.7633L1423.03 324.107C1405.98 357.512 1405.92 396.944 1422.89 430.441ZM1247.48 24.2807C1247.07 24.381 1246.71 24.4349 1246.38 24.4851C1245.98 24.5443 1245.62 24.5982 1245.26 24.7169C1262.12 6.63764 1285.17 -6.12034 1311.76 -9.80667C1373.58 -18.7034 1431.11 24.3303 1440.11 86.2425C1448.89 147.27 1406.94 203.962 1346.24 213.746C1368.86 189.493 1380.87 155.708 1375.6 120.329C1366.83 58.4177 1309.51 15.3846 1247.48 24.2807ZM1290.12 144.026C1270.23 143.973 1254.08 160.02 1254.05 179.868C1254.03 199.717 1270.13 215.85 1290.02 215.903C1309.92 215.956 1326.06 199.909 1326.09 180.061C1326.12 160.213 1310.01 144.079 1290.12 144.026Z" fill="white" fill-opacity="0.05"/>
</g>
</svg>
