<svg width="360" height="685" viewBox="0 0 360 685" fill="none" xmlns="http://www.w3.org/2000/svg">
<mask id="mask0_320_797" style="mask-type:alpha" maskUnits="userSpaceOnUse" x="0" y="0" width="360" height="685">
<rect width="360" height="685" fill="#28334A"/>
</mask>
<g mask="url(#mask0_320_797)">
<path d="M260.674 362.115L228.236 298.467C216.343 275.252 216.127 247.989 227.655 224.95L320.013 38.4945C333.484 11.1818 361.331 -5.91473 391.9 -5.68474L443 -5.30029L260.674 362.115Z" fill="white" fill-opacity="0.02"/>
<path d="M109.111 17.079C108.508 17.2271 108.054 17.2239 107.602 17.3731C118.986 4.94838 134.633 -3.78461 152.748 -6.24585C194.864 -12.1932 234.401 17.6855 240.945 60.4418C247.334 102.587 219.088 141.582 177.733 148.145C193.012 131.478 200.983 108.198 197.157 83.7656C190.764 41.0103 151.378 11.1327 109.111 17.079Z" fill="white" fill-opacity="0.02"/>
<path d="M115.127 125.503C115.016 111.857 125.813 100.874 139.244 100.972C152.674 101.069 163.651 112.21 163.762 125.857C163.873 139.503 153.076 150.486 139.646 150.388C126.216 150.291 115.238 139.149 115.127 125.503Z" fill="white" fill-opacity="0.02"/>
<path d="M111.326 321.885L143.764 385.533C155.657 408.748 155.873 436.011 144.345 459.05L51.9869 645.506C38.5158 672.818 10.6691 689.915 -19.8998 689.685L-71 689.3L111.326 321.885Z" fill="white" fill-opacity="0.02"/>
<path d="M262.889 666.921C263.492 666.773 263.946 666.776 264.398 666.627C253.013 679.052 237.367 687.785 219.252 690.246C177.136 696.193 137.599 666.315 131.055 623.558C124.666 581.413 152.912 542.418 194.267 535.855C178.988 552.522 171.017 575.802 174.843 600.234C181.236 642.99 220.622 672.867 262.889 666.921Z" fill="white" fill-opacity="0.02"/>
<path d="M256.873 558.497C256.984 572.143 246.187 583.126 232.756 583.029C219.326 582.931 208.349 571.79 208.238 558.143C208.127 544.497 218.924 533.514 232.354 533.612C245.784 533.709 256.762 544.851 256.873 558.497Z" fill="white" fill-opacity="0.02"/>
</g>
</svg>
